<svg width="14" height="18" viewBox="0 0 14 18" fill="none" xmlns="http://www.w3.org/2000/svg" xmlns:xlink="http://www.w3.org/1999/xlink">
<path d="M2.86,-0.229C2.182,-0.704 1.246,-0.539 0.771,0.14C0.296,0.818 0.461,1.754 1.14,2.229L2.86,-0.229ZM12,8L12.86,9.229C13.261,8.948 13.5,8.489 13.5,8C13.5,7.511 13.261,7.052 12.86,6.771L12,8ZM1.14,13.771C0.461,14.246 0.296,15.182 0.771,15.86C1.246,16.539 2.182,16.704 2.86,16.229L1.14,13.771ZM1.14,2.229L11.14,9.229L12.86,6.771L2.86,-0.229L1.14,2.229ZM11.14,6.771L1.14,13.771L2.86,16.229L12.86,9.229L11.14,6.771Z" fill="#1521FF"/>
</svg>
