<svg width="106" height="98" viewBox="0 0 106 98" fill="none" xmlns="http://www.w3.org/2000/svg" xmlns:xlink="http://www.w3.org/1999/xlink">
<path d="M65.771,26.196L51.039,26.196L51.039,32.553L65.77,32.553C66.393,32.553 66.901,32.959 66.901,33.457L66.901,50.168C66.901,50.667 66.393,51.073 65.77,51.073L51.039,51.073L51.039,57.429L65.77,57.429C70.779,57.429 74.854,54.172 74.854,50.168L74.854,33.457C74.855,29.452 70.78,26.196 65.771,26.196Z" fill="#501CD6"/>
<path d="M37.94,51.072C37.316,51.072 36.808,50.666 36.808,50.167L36.808,33.456C36.808,32.958 37.316,32.552 37.94,32.552L51.039,32.552L51.039,26.195L37.94,26.195C32.931,26.195 28.855,29.452 28.855,33.456L28.855,50.167C28.855,54.171 32.931,57.428 37.94,57.428L51.039,57.428L51.039,51.072L37.94,51.072Z" fill="#501CD6"/>
<path d="M6.87,38.907C3.853,38.907 1.406,40.862 1.406,43.274L1.406,90.347C1.406,92.758 3.853,94.714 6.87,94.714L51.041,94.714L51.041,38.906L6.87,38.907Z" fill="#EA9100"/>
<path d="M95.215,38.907L51.043,38.907L51.043,94.715L95.214,94.715C98.231,94.715 100.678,92.76 100.678,90.348L100.678,43.276C100.679,40.863 98.232,38.907 95.215,38.907Z" fill="#EA9100"/>
<path d="M40.723,45L40.723,58.043L24.395,58.043L24.395,75.846L40.723,75.846L40.723,88.889L51.041,88.889L51.041,45L40.723,45Z" fill="#FFFFFF"/>
<path d="M62.989,58.043L62.989,45L51.039,45L51.039,88.889L62.989,88.889L62.989,75.846L79.318,75.846L79.318,58.043L62.989,58.043Z" fill="#D9D9DB"/>
<rect  x="12.121" y="36.416" width="13.017" height="2.491" fill="#501CD6"/>
<rect  x="78.57" y="36.416" width="13.017" height="2.491" fill="#501CD6"/>
<path d="M17.685,27.254C14.674,26.621 11.56,28.072 10.767,30.48L0.186,62.624C-0.539,64.826 0.918,67.094 3.476,67.951L2.433,71.118C2.153,71.967 2.791,72.84 3.854,73.063C3.868,73.066 3.884,73.067 3.898,73.07L18.895,27.508L17.685,27.254Z" fill="#BCE5ED"/>
<path d="M20.016,27.745L18.891,27.508L3.895,73.07C4.944,73.27 6.008,72.767 6.284,71.929L7.327,68.761C10.081,69.021 12.746,67.621 13.471,65.419L24.052,33.274C24.845,30.867 23.03,28.378 20.016,27.745Z" fill="#9ED7E2"/>
<path d="M17.526,27.739C14.842,27.176 12.084,28.462 11.377,30.607L0.795,62.752C0.089,64.897 1.698,67.103 4.382,67.668L5.59,67.923L18.734,27.994L17.526,27.739Z" fill="#FFFFFF"/>
<path d="M19.86,28.23L18.737,27.994L5.594,67.923L6.717,68.159C9.401,68.724 12.159,67.437 12.868,65.291L23.449,33.147C24.154,31 22.545,28.796 19.86,28.23Z" fill="#D9D9DB"/>
<path d="M4.013,72.576C3.286,72.425 2.851,71.827 3.04,71.244L4.43,67.029C4.622,66.448 5.367,66.1 6.095,66.253C6.823,66.406 7.257,67.002 7.066,67.585L5.678,71.801C5.488,72.381 4.741,72.73 4.013,72.576Z" fill="#FFFFFF"/>
<path d="M14.938,29.674L14.784,30.14L17.26,30.66L16.432,33.175L15.073,32.89L14.92,33.353L16.279,33.639L15.451,36.156L14.094,35.869L13.938,36.333L15.298,36.619L14.471,39.135L13.11,38.849L12.959,39.313L14.318,39.599L13.49,42.115L11.015,41.595L10.862,42.059L13.337,42.58L12.509,45.094L11.15,44.808L10.997,45.274L12.356,45.559L11.526,48.075L10.167,47.789L10.015,48.254L11.373,48.539L3.719,71.794L4.279,71.912L17.973,30.312L14.938,29.674Z" fill="#501CD6"/>
<path d="M4.277,71.912L4.752,72.012L12.406,48.757L13.767,49.043L13.918,48.579L12.559,48.293L13.387,45.777L14.746,46.063L14.899,45.598L13.542,45.312L14.368,42.798L16.843,43.318L16.997,42.853L14.523,42.333L15.35,39.817L16.709,40.104L16.862,39.638L15.504,39.353L16.331,36.837L17.69,37.124L17.843,36.66L16.483,36.373L17.312,33.857L18.671,34.142L18.822,33.679L17.464,33.393L18.293,30.878L20.768,31.397L20.921,30.933L17.971,30.313L4.277,71.912Z" fill="#501CD6"/>
<path d="M10.957,49.808L10.546,51.055L9.187,50.769L9.034,51.234L10.393,51.519L9.565,54.034L7.091,53.514L6.937,53.978L9.412,54.499L8.584,57.014L7.225,56.729L7.073,57.193L8.431,57.479L7.603,59.994L6.247,59.709L6.091,60.173L7.45,60.459L6.622,62.975L5.264,62.689L5.111,63.152L6.469,63.438L5.641,65.953L3.168,65.432L3.015,65.896L5.489,66.417L4.102,70.631L3.304,70.463L3.044,71.243C2.855,71.826 3.29,72.423 4.017,72.575C4.032,72.578 4.047,72.58 4.061,72.582L11.519,49.924L10.957,49.808Z" fill="#FFA108"/>
<path d="M11.428,51.736L12.787,52.021L12.938,51.558L11.581,51.273L11.992,50.025L11.517,49.926L4.059,72.584C4.772,72.715 5.493,72.369 5.681,71.802L5.937,71.021L5.136,70.852L6.523,66.638L8.997,67.158L9.15,66.694L6.676,66.174L7.504,63.659L8.862,63.945L9.017,63.481L7.657,63.196L8.485,60.68L9.845,60.966L9.997,60.502L8.638,60.215L9.466,57.7L10.825,57.986L10.978,57.521L9.619,57.235L10.447,54.721L12.919,55.242L13.075,54.777L10.6,54.256L11.428,51.736Z" fill="#FFA108"/>
<path d="M90.205,61.383L90.205,67.264C85.532,68.139 82.145,70.713 82.145,73.754L82.145,95.841C82.145,96.763 83.421,97.516 84.982,97.516L93.714,97.516L93.714,61.383L90.205,61.383Z" fill="#501CD6"/>
<path d="M97.223,67.264L97.223,61.383L93.715,61.383L93.715,97.516L102.447,97.516C104.008,97.516 105.284,96.762 105.284,95.841L105.284,73.754C105.286,70.713 101.898,68.139 97.223,67.264Z" fill="#501CD6"/>
<rect  x="82.145" y="77.214" width="11.569" height="11.98" fill="#FFFFFF"/>
<rect  x="93.715" y="77.214" width="11.569" height="11.98" fill="#D9D9DB"/>
<path d="M97.417,61.383L93.715,61.383L93.715,66.584L97.417,66.584C97.852,66.584 98.208,66.3 98.208,65.953L98.208,62.015C98.209,61.666 97.852,61.383 97.417,61.383Z" fill="#D9D9DB"/>
<path d="M90.013,61.383C89.579,61.383 89.223,61.666 89.223,62.015L89.223,65.953C89.223,66.3 89.577,66.584 90.013,66.584L93.716,66.584L93.716,61.383L90.013,61.383Z" fill="#FFFFFF"/>
<path d="M83.009,57.044C81.858,57.044 80.557,56.741 79.11,56.13C76.298,54.949 74.998,53.072 75.452,50.844C76.144,47.439 80.684,44.247 85.788,43.58C86.476,43.49 87.282,43.431 88.171,43.451C87.917,40.491 87.439,38.184 87.428,38.126L88.078,38.038C88.128,38.275 88.605,40.566 88.851,43.48C92.515,43.724 97.351,45.366 101.261,51.285L100.677,51.532C96.942,45.882 92.372,44.275 88.893,44.016C89.225,48.605 88.918,54.466 85.592,56.396C84.843,56.827 83.982,57.044 83.009,57.044ZM87.812,43.976C87.102,43.976 86.456,44.027 85.895,44.101C81.053,44.735 76.753,47.735 76.105,50.931C75.7,52.914 76.878,54.596 79.419,55.665C81.843,56.683 83.791,56.786 85.203,55.966C88.289,54.178 88.544,48.466 88.213,43.982C88.076,43.978 87.943,43.976 87.812,43.976Z" fill="#FAFBFD"/>
<path d="M78.404,34.618C78.25,34.618 78.098,34.561 78.003,34.454C74.27,30.309 72.88,26.28 73.874,22.48C74.864,18.69 77.927,16.352 79.581,15.57C79.817,15.458 80.12,15.521 80.259,15.709C80.398,15.896 80.321,16.141 80.087,16.252C78.677,16.919 75.766,19.115 74.843,22.643C73.91,26.216 75.244,30.035 78.807,33.991C78.967,34.17 78.916,34.417 78.693,34.545C78.606,34.595 78.504,34.618 78.404,34.618Z" fill="#9ED7E2"/>
<path d="M96.463,34.618C96.617,34.618 96.769,34.561 96.866,34.454C100.6,30.309 101.988,26.28 100.997,22.48C100.006,18.69 96.941,16.352 95.288,15.57C95.054,15.458 94.749,15.521 94.609,15.709C94.469,15.896 94.546,16.141 94.784,16.252C96.193,16.919 99.105,19.115 100.027,22.643C100.96,26.216 99.628,30.035 96.063,33.991C95.903,34.17 95.954,34.417 96.176,34.545C96.261,34.595 96.361,34.618 96.463,34.618Z" fill="#9ED7E2"/>
<path d="M105.044,51.409C105.044,50.221 103.837,49.256 102.352,49.256C100.865,49.256 99.66,50.221 99.66,51.409C99.66,52.596 100.866,53.561 102.352,53.561C103.837,53.561 105.044,52.596 105.044,51.409Z" fill="#E49B03"/>
<path d="M104.133,51.409C104.133,50.623 103.333,49.986 102.352,49.986C101.37,49.986 100.574,50.623 100.574,51.409C100.574,52.193 101.37,52.831 102.352,52.831C103.334,52.831 104.133,52.193 104.133,51.409Z" fill="#FAFBFD"/>
<g opacity="0.1">
<path d="M85.204,55.966C83.791,56.786 81.843,56.683 79.42,55.665C76.878,54.595 75.701,52.914 76.106,50.931C76.753,47.735 81.054,44.735 85.896,44.101C86.457,44.027 87.103,43.976 87.813,43.976C87.944,43.976 88.076,43.978 88.212,43.981C88.543,48.466 88.289,54.178 85.204,55.966Z" fill="url(#pf_0_23_277)"/>
</g>
<path d="M50.605,65.203L50.605,74.802C50.711,74.79 50.815,74.784 50.923,74.784C52.602,74.784 53.614,75.6 55.38,75.562C56.291,75.542 59.338,74.986 59.338,72.666C59.338,70.015 55.824,65.203 50.605,65.203Z" fill="#FFA108"/>
<path d="M42.049,73.337C42.492,75.442 44.814,76.23 47.217,75.685C49.023,75.276 49.809,74.887 50.607,74.803L50.607,65.204C45.99,65.203 41.384,70.178 42.049,73.337Z" fill="#FFB923"/>
<path d="M37.697,66.91C39.081,68.322 41.298,68.78 42.648,67.934L37.635,62.822C36.285,63.669 36.313,65.499 37.697,66.91Z" fill="#FFB923"/>
<path d="M37.637,62.823L42.649,67.935C43.999,67.09 43.971,65.26 42.586,63.849C41.203,62.436 38.987,61.977 37.637,62.823Z" fill="#FFA108"/>
<path d="M44.069,61.692C44.323,63.474 45.909,64.793 47.614,64.639L46.697,58.185C44.993,58.339 43.816,59.909 44.069,61.692Z" fill="#FFB923"/>
<path d="M46.695,58.184L47.612,64.639C49.317,64.485 50.493,62.914 50.24,61.132C49.985,59.349 48.399,58.029 46.695,58.184Z" fill="#FFA108"/>
<path d="M51.596,60.333C50.987,62.059 51.833,63.76 53.482,64.132L55.687,57.88C54.038,57.508 52.206,58.607 51.596,60.333Z" fill="#FFB923"/>
<path d="M55.689,57.88L53.484,64.132C55.135,64.504 56.967,63.405 57.575,61.679C58.185,59.954 57.34,58.252 55.689,57.88Z" fill="#FFA108"/>
<path d="M57.649,64.132C56.665,65.744 57.118,67.539 58.659,68.139L62.222,62.301C60.68,61.701 58.634,62.52 57.649,64.132Z" fill="#FFB923"/>
<path d="M62.223,62.301L58.66,68.139C60.202,68.74 62.248,67.92 63.232,66.307C64.217,64.696 63.764,62.902 62.223,62.301Z" fill="#FFA108"/>
<path d="M12.941,23.673L12.691,23.249L30.62,16.424L30.92,16.934L12.941,23.673Z" fill="#1A4B6C"/>
<path d="M31.9,16.26L30.619,14.094L25.168,16.153L25.168,16.154L25.852,17.717L25.181,17.97L25.587,18.656L31.9,16.26Z" fill="#BCE5ED"/>
<path d="M25.973,19.311L26.643,19.057L27.72,20.471L27.72,20.473L27.721,20.472L33.171,18.414L31.898,16.26L25.586,18.656L25.973,19.311Z" fill="#9ED7E2"/>
<path d="M31.976,21.715L31.978,21.717L56.508,12.45L53.835,7.929L28.047,17.722L31.976,21.715Z" fill="#9ED7E2"/>
<path d="M53.836,7.929L51.199,3.468L26.668,12.735L26.669,12.737L28.037,17.712L28.047,17.722L53.836,7.929Z" fill="#BCE5ED"/>
<path d="M43.357,6.939L27.328,12.994L28.57,17.51L32.147,21.143L48.176,15.089L43.357,6.939Z" fill="#19B4FD"/>
<path d="M32.145,21.143L48.174,15.089L45.754,10.997L28.578,17.52L32.145,21.143Z" fill="#E4A011"/>
<path d="M64.424,4.472L62.138,4.472L62.138,9.739L64.424,9.739L64.424,4.472Z" transform="rotate(-41.391 63.281 7.106)" fill="#501CD6"/>
<path d="M61.771,0.045L59.483,0.045L59.483,5.212L61.771,5.212L61.771,0.045Z" transform="rotate(-41.391 60.627 2.628)" fill="#501CD6"/>
<path d="M56.376,10.097L62.395,7.825L60.875,5.255L54.863,7.538L56.376,10.097Z" fill="#501CD6"/>
<path d="M60.875,5.255L59.487,2.905L53.469,5.178L54.864,7.538L60.875,5.255Z" fill="#501CD6"/>
<path d="M57.764,7.043L55.564,7.043L55.564,14.049L57.764,14.049L57.764,7.043Z" transform="rotate(-41.4 56.664 10.546)" fill="#9ED7E2"/>
<path d="M54.195,1.084L51.994,1.084L51.994,8.017L54.195,8.017L54.195,1.084Z" transform="rotate(-41.391 53.094 4.55)" fill="#BCE5ED"/>
<path d="M42.857,12.855L42.445,13.01L43.961,15.573L44.371,15.418L42.857,12.855Z" fill="#FA7564"/>
<path d="M33.209,16.664L32.771,16.664L32.771,19.641L33.209,19.641L33.209,16.664Z" transform="rotate(-41.382 32.99 18.152)" fill="#FA7564"/>
<path d="M41.029,14.453L40.591,14.453L40.591,15.941L41.029,15.941L41.029,14.453Z" transform="rotate(-41.325 40.81 15.197)" fill="#FA7564"/>
<path d="M35.85,16.424L35.412,16.424L35.412,17.912L35.85,17.912L35.85,16.424Z" transform="rotate(-41.421 35.631 17.168)" fill="#FA7564"/>
<path d="M38.423,15.421L37.984,15.421L37.984,16.91L38.423,16.91L38.423,15.421Z" transform="rotate(-41.641 38.203 16.166)" fill="#FA7564"/>
<path d="M54.028,8.798L53.588,8.798L53.588,11.776L54.028,11.776L54.028,8.798Z" transform="rotate(-41.465 53.808 10.287)" fill="#FA7564"/>
<path d="M51.413,10.532L50.974,10.532L50.974,12.021L51.413,12.021L51.413,10.532Z" transform="rotate(-41.435 51.194 11.277)" fill="#FA7564"/>
<path d="M46.23,12.502L45.791,12.502L45.791,13.991L46.23,13.991L46.23,12.502Z" transform="rotate(-41.509 46.011 13.247)" fill="#FA7564"/>
<path d="M48.793,11.518L48.353,11.518L48.353,13.007L48.793,13.007L48.793,11.518Z" transform="rotate(-41.404 48.573 12.262)" fill="#FA7564"/>
<defs>
<linearGradient id="pf_0_23_277" x1="82.175" y1="43.524" x2="82.175" y2="57.468" gradientUnits="userSpaceOnUse">
<stop offset="0.078" stop-color="#F2F2F2"/>
<stop offset="1" stop-color="#1A1A1A"/>
</linearGradient>
</defs>
</svg>
