<svg width="142" height="150" viewBox="0 0 142 150" fill="none" xmlns="http://www.w3.org/2000/svg" xmlns:xlink="http://www.w3.org/1999/xlink">
<path d="M70.275,21.686C31.682,-26.369 -21.696,20.377 8.024,75.893C22.698,103.306 61.706,128.279 72.134,149.258Z" fill="#FFFFFF"/>
<path d="M67.316,21.894C104.935,-28.164 162.157,15.654 134.038,72.685C120.153,100.847 81.05,127.878 71.25,149.386Z" fill="#FFFFFF"/>
<path d="M54.399,77.028C57.561,73.736 57.391,66.549 54.019,60.977C50.645,55.405 45.348,53.557 42.186,56.85C39.024,60.143 39.195,67.329 42.567,72.901C45.94,78.473 51.237,80.321 54.399,77.028Z" fill="#501CD6"/>
<path d="M61.841,56.387C65.619,53.968 66.985,46.932 64.889,40.672C62.795,34.411 58.032,31.296 54.254,33.715C50.475,36.133 49.111,43.169 51.205,49.43C53.301,55.691 58.062,58.805 61.841,56.387Z" fill="#501CD6"/>
<path d="M81.009,55.103C84.945,52.999 86.798,46.094 85.146,39.68C83.493,33.267 78.962,29.773 75.025,31.877C71.09,33.981 69.237,40.886 70.889,47.3C72.543,53.713 77.073,57.207 81.009,55.103Z" fill="#501CD6"/>
<path d="M75.708,101.684C83.635,101.033 89.047,91.574 87.798,80.557C86.547,69.54 79.109,61.136 71.183,61.786C63.256,62.437 57.844,71.896 59.093,82.913C60.344,93.93 67.782,102.334 75.708,101.684Z" fill="#501CD6"/>
<path d="M67.687,107.454C75.487,106.792 81,98.862 79.999,89.74C78.996,80.619 71.859,73.761 64.058,74.422C56.258,75.083 50.745,83.014 51.746,92.135C52.749,101.257 59.884,108.115 67.687,107.454Z" fill="#501CD6"/>
</svg>
