<svg width="22" height="16" viewBox="0 0 22 16" fill="none" xmlns="http://www.w3.org/2000/svg" xmlns:xlink="http://www.w3.org/1999/xlink">
<path d="M18.875,15.676L3.125,15.676C2.296,15.676 1.502,15.346 0.916,14.76C0.331,14.174 0.001,13.38 0,12.551L0,3.125C0.001,2.297 0.331,1.502 0.916,0.916C1.502,0.331 2.296,0.001 3.125,0L18.875,0C19.704,0.001 20.498,0.331 21.084,0.916C21.669,1.502 21.999,2.297 22,3.125L22,12.551C21.999,13.38 21.669,14.174 21.084,14.76C20.498,15.346 19.704,15.676 18.875,15.676ZM3.125,1.103C2.589,1.103 2.074,1.316 1.695,1.695C1.316,2.074 1.103,2.589 1.103,3.125L1.103,12.551C1.103,13.088 1.316,13.602 1.695,13.981C2.074,14.36 2.589,14.574 3.125,14.574L18.875,14.574C19.411,14.574 19.926,14.36 20.305,13.981C20.684,13.602 20.897,13.088 20.897,12.551L20.897,3.125C20.897,2.589 20.684,2.074 20.305,1.695C19.926,1.316 19.411,1.103 18.875,1.103L3.125,1.103Z" transform="rotate(360 11 7.838)" fill="#2A19BD"/>
<path d="M11.013,10.073C10.333,10.074 9.671,9.854 9.127,9.445L0.543,2.952C0.482,2.91 0.431,2.855 0.392,2.792C0.352,2.729 0.326,2.659 0.315,2.586C0.303,2.513 0.307,2.438 0.325,2.366C0.343,2.294 0.375,2.227 0.42,2.168C0.465,2.109 0.521,2.059 0.585,2.022C0.65,1.985 0.721,1.962 0.794,1.953C0.868,1.944 0.942,1.95 1.014,1.971C1.085,1.992 1.151,2.027 1.208,2.073L9.793,8.573C10.145,8.837 10.574,8.979 11.013,8.979C11.453,8.979 11.882,8.837 12.234,8.573L20.819,2.073C20.876,2.027 20.942,1.992 21.013,1.971C21.085,1.95 21.159,1.944 21.233,1.953C21.306,1.962 21.377,1.985 21.442,2.022C21.506,2.059 21.562,2.109 21.607,2.168C21.652,2.227 21.684,2.294 21.702,2.366C21.72,2.438 21.724,2.513 21.712,2.586C21.701,2.659 21.675,2.729 21.635,2.792C21.596,2.855 21.545,2.91 21.484,2.952L12.9,9.445C12.356,9.854 11.694,10.074 11.013,10.073Z" transform="rotate(360 11.013 6.011)" fill="#2A19BD"/>
<path d="M0.773,14.14C0.661,14.14 0.552,14.106 0.46,14.043C0.368,13.98 0.297,13.89 0.257,13.785C0.217,13.681 0.21,13.567 0.237,13.458C0.263,13.349 0.322,13.251 0.406,13.177L7.17,7.144C7.28,7.046 7.423,6.996 7.569,7.004C7.715,7.013 7.852,7.079 7.95,7.188C8.047,7.297 8.097,7.44 8.089,7.587C8.081,7.733 8.015,7.87 7.906,7.967L1.141,14C1.041,14.092 0.909,14.142 0.773,14.14ZM21.237,14.14C21.101,14.142 20.969,14.092 20.869,14L14.104,7.967C13.995,7.87 13.929,7.733 13.921,7.587C13.912,7.44 13.963,7.297 14.06,7.188C14.158,7.079 14.294,7.013 14.441,7.004C14.587,6.996 14.73,7.046 14.839,7.144L21.6,13.177C21.684,13.251 21.743,13.349 21.769,13.458C21.796,13.567 21.789,13.681 21.749,13.785C21.709,13.89 21.638,13.98 21.546,14.043C21.454,14.106 21.345,14.14 21.233,14.14L21.237,14.14Z" transform="rotate(360 11.003 10.572)" fill="#2A19BD"/>
</svg>
