<svg width="140" height="94" viewBox="0 0 140 94" fill="none" xmlns="http://www.w3.org/2000/svg" xmlns:xlink="http://www.w3.org/1999/xlink">
<path d="M70,0L70,35.256L127.036,35.252L127.036,87.65L70,87.65L70,92.045L133.272,92.045L133.272,35.426L140,35.426L70,0Z" fill="#381889"/>
<path d="M12.953,87.65L12.953,35.261L69.999,35.256L69.999,0L0,35.426L6.716,35.426L6.716,92.045L69.999,92.045L69.999,87.65L12.953,87.65Z" fill="#501CD6"/>
<path d="M102.179,76.418C102.179,78.033 100.542,79.341 98.522,79.341L59.391,79.341C57.372,79.341 55.734,78.033 55.734,76.418L55.734,75.688C55.734,74.074 57.372,72.765 59.391,72.765L98.522,72.765C100.542,72.765 102.179,74.074 102.179,75.688L102.179,76.418Z" fill="#361909"/>
<path d="M87.317,68.69C87.317,61.319 82.787,62.724 69.74,63.101C61.801,63.331 57.3,52.496 37.552,55.479C25.449,57.307 22.313,66.527 22.313,70.365C22.313,82.575 35.657,83.635 58.191,83.511C75.603,83.414 87.317,75.09 87.317,68.69Z" fill="#8A4E2B"/>
<path d="M102.179,80.589C102.179,82.203 100.542,83.512 98.522,83.512L59.391,83.512C57.372,83.512 55.734,82.203 55.734,80.589L55.734,79.859C55.734,78.244 57.372,76.936 59.391,76.936L98.522,76.936C100.542,76.936 102.179,78.244 102.179,79.859L102.179,80.589Z" fill="#8A4E2B"/>
<path d="M52.808,76.935L35.375,76.935L35.375,83.512L52.808,83.512C54.827,83.512 56.464,82.203 56.464,80.589L56.464,79.859C56.464,78.244 54.827,76.935 52.808,76.935Z" fill="#A36039"/>
<path d="M27.597,65.271C25.98,63.974 24.724,62.537 24.05,61.186C23.433,59.947 23.36,58.876 23.862,58.392C24.883,57.409 24.712,55.95 23.483,55.136C22.253,54.32 20.427,54.456 19.406,55.439C18.378,56.43 17.805,57.698 17.747,59.104C17.737,59.349 17.743,59.599 17.763,59.853C17.843,60.825 18.147,61.847 18.672,62.9C19.905,65.372 22.287,67.863 25.38,69.914C26.099,70.39 26.841,70.831 27.595,71.235L27.597,65.271Z" fill="#8A4E2B"/>
<path d="M35.925,83.519C43.443,83.519 49.537,78.251 49.537,71.753C49.537,65.255 43.443,59.987 35.925,59.987C28.407,59.987 22.313,65.255 22.313,71.753C22.313,78.251 28.407,83.519 35.925,83.519Z" fill="#A36039"/>
<path d="M77.56,50.755C77.56,50.755 71.924,47.854 70.758,47.895C70.066,47.92 69.137,48.931 69.137,48.931L65.02,55.047L71.371,59.681L77.56,50.755Z" fill="#361909"/>
<path d="M70.277,48.036C70.277,48.036 70.199,48.091 70.077,48.224C69.821,48.502 69.426,49.169 69.548,50.718C69.951,55.832 71.456,65.298 68.228,65.78C67.26,65.925 60.61,59.909 60.207,57.193C59.869,54.912 63.981,51.341 70.277,48.036Z" fill="#5D2C10"/>
<path d="M87.078,50.542C87.078,50.542 90.814,46.094 91.907,45.762C92.553,45.566 93.908,46.201 93.908,46.201L100.717,50.512L96.494,57.707L87.078,50.542Z" fill="#361909"/>
<path d="M92.418,45.739C92.418,45.739 92.517,45.766 92.696,45.848C93.07,46.022 93.762,46.51 94.417,47.97C96.581,52.795 99.889,61.963 103.091,61.384C104.052,61.21 107.178,53.58 106.203,50.959C105.382,48.758 99.836,46.782 92.418,45.739Z" fill="#5D2C10"/>
<path d="M70.972,58.836C71.053,60.625 72.452,62.082 72.865,63.724C73.072,64.549 72.093,69.653 76.748,72.99C77.35,73.421 78,73.625 78.878,74.23C80.254,75.179 81.931,76.431 83.702,76.444L83.702,49.481C76.657,49.512 70.672,52.181 70.972,58.836Z" fill="#915533"/>
<path d="M83.825,49.48C83.784,49.48 83.744,49.48 83.703,49.481L83.703,76.444C83.712,76.444 83.721,76.444 83.73,76.444C85.626,76.444 87.615,74.718 88.818,73.801C89.491,73.288 89.636,73.64 90.202,73.294C95.486,70.062 94.572,64.57 94.786,63.723C95.197,62.081 96.479,60.62 96.676,58.836C97.447,51.887 90.924,49.48 83.825,49.48Z" fill="#8A4E2B"/>
<path d="M79.707,69.497L83.695,69.497L83.695,61.245C81.537,61.245 79.781,64.912 79.707,69.497Z" fill="#F0CDB2"/>
<path d="M83.695,61.245L83.695,69.497L87.683,69.497C87.61,64.912 85.853,61.245 83.695,61.245Z" fill="#F0C5A3"/>
<path d="M74.816,74.919C76.368,76.249 79.398,75.994 81.583,74.35C83.769,72.706 84.281,70.296 82.727,68.967L74.816,74.919Z" fill="#F0C5A3"/>
<path d="M82.727,68.967C81.175,67.637 78.145,67.892 75.961,69.536C73.776,71.18 73.263,73.59 74.815,74.919L82.727,68.967Z" fill="#F0D6C2"/>
<path d="M92.516,74.919C90.964,76.249 87.934,75.994 85.749,74.35C83.565,72.706 83.052,70.296 84.605,68.967L92.516,74.919Z" fill="#F0C5A3"/>
<path d="M84.605,68.967C86.157,67.637 89.188,67.892 91.372,69.536C93.556,71.18 94.07,73.59 92.516,74.919L84.605,68.967Z" fill="#F0D6C2"/>
<path d="M79.129,68.849C79.129,70.499 82.48,71.656 83.696,71.75L83.696,67.063C81.16,67.094 79.129,67.881 79.129,68.849Z" fill="#231F20"/>
<path d="M83.844,67.062C83.794,67.062 83.745,67.063 83.695,67.063L83.695,71.749C83.748,71.754 83.798,71.756 83.844,71.756C85.065,71.756 88.56,70.597 88.56,68.849C88.56,67.862 86.448,67.062 83.844,67.062Z" fill="#000000"/>
<path d="M79.776,61.461C79.558,61.946 79.503,60.951 78.666,60.712C77.829,60.474 77.271,60.819 76.746,60.595C76.178,60.352 77.817,59.91 78.654,60.15C79.491,60.389 79.992,60.977 79.776,61.461Z" fill="#5D2C10"/>
<path d="M79.572,61.542C79.572,60.98 79.001,60.525 78.3,60.525C77.597,60.525 77.027,60.98 77.027,61.542C77.027,62.103 77.597,62.559 78.3,62.559C79.003,62.558 79.572,62.103 79.572,61.542Z" fill="#231F20"/>
<path d="M78.126,61.017C78.126,60.891 77.998,60.79 77.842,60.79C77.687,60.79 77.559,60.891 77.559,61.017C77.559,61.143 77.687,61.244 77.842,61.244C77.998,61.245 78.126,61.143 78.126,61.017Z" fill="#FFFFFF"/>
<path d="M87.914,61.461C88.131,61.946 88.187,60.951 89.024,60.712C89.861,60.474 90.419,60.819 90.944,60.595C91.512,60.352 89.873,59.91 89.036,60.15C88.199,60.389 87.697,60.977 87.914,61.461Z" fill="#5D2C10"/>
<path d="M88.117,61.542C88.117,60.98 88.688,60.525 89.39,60.525C90.093,60.525 90.662,60.98 90.662,61.542C90.662,62.103 90.093,62.559 89.39,62.559C88.688,62.558 88.117,62.103 88.117,61.542Z" fill="#231F20"/>
<path d="M89.566,61.017C89.566,60.891 89.694,60.79 89.85,60.79C90.006,60.79 90.134,60.891 90.134,61.017C90.134,61.143 90.006,61.244 89.85,61.244C89.693,61.245 89.566,61.143 89.566,61.017Z" fill="#FFFFFF"/>
<path d="M79.076,58.634C79.076,58.959 78.531,59.223 77.862,59.223C77.191,59.223 76.648,58.959 76.648,58.634C76.648,58.308 77.193,58.044 77.862,58.044C78.533,58.044 79.076,58.308 79.076,58.634Z" fill="#5D2C10"/>
<path d="M91.044,58.634C91.044,58.959 90.5,59.223 89.831,59.223C89.16,59.223 88.617,58.959 88.617,58.634C88.617,58.308 89.161,58.044 89.831,58.044C90.501,58.044 91.044,58.308 91.044,58.634Z" fill="#5D2C10"/>
<rect  x="28.895" y="14.091" width="42.809" height="16.339" fill="#FFB315"/>
<rect  x="28.895" y="14.091" width="42.809" height="16.339" fill="#000000" fill-opacity="0.2"/>
<rect  x="28.895" y="14.091" width="42.809" height="16.339" fill="#000000" fill-opacity="0.2"/>
<rect  x="28.895" y="14.091" width="42.809" height="16.339" fill="#000000" fill-opacity="0.2"/>
<rect  x="71.699" y="14.091" width="45.138" height="16.339" fill="#FFB315"/>
<rect  x="71.699" y="14.091" width="45.138" height="16.339" fill="#000000" fill-opacity="0.2"/>
<rect  x="71.699" y="14.091" width="45.138" height="16.339" fill="#000000" fill-opacity="0.2"/>
<rect  x="71.699" y="14.091" width="45.138" height="16.339" fill="#000000" fill-opacity="0.2"/>
</svg>
