<svg width="42" height="36" viewBox="0 0 42 36" fill="none" xmlns="http://www.w3.org/2000/svg" xmlns:xlink="http://www.w3.org/1999/xlink">
<path d="M19.999,14C17.359,14 16.033,14.842 14.137,17.848L13.649,18.644L12.859,20.02L12.577,20.528C12.097,21.396 11.435,22.034 10.299,22.812L9.199,23.542C7.319,24.796 6.335,25.778 5.785,27.452C5.537,28.128 5.393,29.158 5.399,30.012C5.399,33.386 7.795,36 10.999,36L11.483,35.988C11.721,35.976 11.951,35.954 12.191,35.92L12.687,35.834L12.951,35.778L13.533,35.632L13.857,35.542L14.997,35.202L16.523,34.716L17.433,34.444C18.493,34.144 19.313,34 19.999,34C20.687,34 21.505,34.146 22.565,34.444L23.475,34.716L25.003,35.2L26.141,35.542L26.765,35.71C26.958,35.758 27.14,35.799 27.311,35.834L27.807,35.92C28.047,35.954 28.277,35.976 28.515,35.988L28.999,36C32.203,36 34.599,33.386 34.599,30C34.599,29.146 34.453,28.122 34.185,27.388C33.713,25.94 32.831,24.942 31.225,23.728L30.711,23.348L29.655,22.588C28.371,21.648 27.649,20.936 27.149,20.032L26.609,19.062L26.105,18.198C24.083,14.806 22.869,14 19.999,14ZM35.559,8L35.499,8C33.061,8.04 30.799,10.132 29.683,13.008C28.303,16.558 28.987,20.448 31.833,21.674C32.345,21.892 32.887,22 33.435,22C35.897,22 38.195,19.894 39.321,16.992C40.693,13.444 40.001,9.552 37.169,8.328C36.66,8.111 36.111,8 35.559,8ZM14.049,0C13.825,0 13.679,0.004 13.509,0.03L13.323,0.062C10.259,0.474 8.529,4.04 9.107,7.772C9.651,11.222 12.031,14 14.947,14L15.321,13.99L15.489,13.97L15.673,13.938C18.739,13.526 20.467,9.96 19.889,6.228C19.349,2.774 16.969,0 14.049,0Z" fill="#FFFFFF"/>
<path d="M25.943,0C23.025,0 20.649,2.776 20.111,6.226C19.531,9.96 21.259,13.526 24.459,13.96C24.663,13.987 24.861,14 25.051,14C27.831,14 30.137,11.47 30.805,8.234L30.887,7.774C31.467,4.04 29.739,0.474 26.539,0.04C26.342,0.012 26.143,-0.001 25.943,0ZM4.433,8C3.885,8 3.345,8.108 2.839,8.322C-0.013,9.552 -0.695,13.446 0.683,16.992C1.809,19.894 4.103,22 6.565,22C7.113,22 7.653,21.892 8.159,21.678C11.011,20.448 11.693,16.554 10.315,13.008C9.189,10.106 6.895,8 4.433,8Z" fill="#FFFFFF"/>
</svg>
