<svg width="132" height="114" viewBox="0 0 132 114" fill="none" xmlns="http://www.w3.org/2000/svg" xmlns:xlink="http://www.w3.org/1999/xlink">
<rect  x="55.918" y="28.221" width="9.428" height="27.034" fill="#EDB485"/>
<rect  x="65.344" y="28.221" width="9.53" height="27.034" fill="#FFC89F"/>
<path d="M49.664,20.635C49.664,29.148 56.682,36.052 65.348,36.079L65.348,2.537C50.575,2.559 49.664,12.116 49.664,20.635Z" fill="#FFC89F"/>
<path d="M65.398,2.537C65.38,2.537 65.364,2.537 65.348,2.538L65.348,36.08C65.365,36.08 65.382,36.08 65.398,36.08C74.088,36.08 81.132,29.165 81.132,20.635C81.132,12.106 81.132,2.537 65.398,2.537Z" fill="#EDB485"/>
<path d="M51.718,20.893C52.241,22.727 51.635,24.402 50.364,24.633C49.093,24.864 47.64,23.565 47.117,21.73C46.595,19.896 47.202,18.222 48.471,17.99C49.742,17.759 51.195,19.059 51.718,20.893Z" fill="#FFC89F"/>
<path d="M79.082,20.893C78.559,22.727 79.167,24.402 80.436,24.633C81.707,24.864 83.16,23.565 83.683,21.73C84.206,19.896 83.598,18.222 82.329,17.99C81.058,17.759 79.605,19.059 79.082,20.893Z" fill="#EDB485"/>
<path d="M65.309,0.029C57.577,-0.261 50.561,1.599 48.455,6.662C47.677,8.533 48.413,16.16 49.089,18.069C49.496,19.219 50.856,24.659 51.336,20.735C51.353,19.992 52.064,13.248 53.033,12.044C55.099,9.477 58.156,9.371 59.891,10.194C61.716,11.059 63.189,11.13 65.307,11.055C65.321,11.055 65.334,11.056 65.347,11.056L65.347,0.028C65.335,0.028 65.322,0.028 65.309,0.029Z" fill="#4A3020"/>
<path d="M82.162,6.662C80.058,1.607 73.063,-0.255 65.348,0.028L65.348,11.056C67.445,11.13 68.911,11.055 70.726,10.194C72.46,9.371 75.517,9.476 77.583,12.044C78.552,13.248 79.263,19.992 79.281,20.735C79.761,24.659 81.12,19.219 81.528,18.069C82.202,16.16 82.939,8.533 82.162,6.662Z" fill="#362317"/>
<path d="M77.166,39.486C78.754,39.656 80.21,39.824 81.543,39.988C94.688,41.615 96.006,42.963 96.006,42.963L93.327,75.915C93.327,75.915 93.686,87.109 94.282,107.332L65.348,107.332L65.348,59.074L77.166,39.486Z" fill="#D9D9DB"/>
<path d="M53.525,39.486C51.937,39.656 50.482,39.824 49.147,39.988C36.002,41.615 34.684,42.963 34.684,42.963L37.363,75.915C37.363,75.915 37.003,87.109 36.408,107.332L65.342,107.332L65.342,59.074L53.525,39.486Z" fill="#EAEBED"/>
<path d="M65.346,65.917C65.346,65.917 65.343,65.916 65.341,65.916C63.467,65.916 61.953,67.133 61.953,68.627C61.953,70.128 63.467,71.341 65.341,71.341C65.341,71.341 65.343,71.34 65.346,71.34C67.225,71.338 68.74,70.127 68.74,68.627C68.738,67.134 67.225,65.919 65.346,65.917Z" fill="#052538"/>
<path d="M65.346,79.865C65.346,79.865 65.343,79.864 65.341,79.864C63.467,79.864 61.953,81.081 61.953,82.575C61.953,84.077 63.467,85.29 65.341,85.29C65.341,85.29 65.343,85.289 65.346,85.289C67.225,85.287 68.74,84.075 68.74,82.575C68.738,81.084 67.225,79.868 65.346,79.865Z" fill="#052538"/>
<path d="M65.346,96.11C65.346,96.11 65.343,96.109 65.341,96.109C63.467,96.109 61.953,97.326 61.953,98.82C61.953,100.321 63.467,101.535 65.341,101.535C65.341,101.535 65.343,101.534 65.346,101.534C67.225,101.531 68.74,100.32 68.74,98.82C68.738,97.328 67.225,96.112 65.346,96.11Z" fill="#052538"/>
<rect  x="0" y="104.345" width="130.79" height="9.157" fill="#501CD6"/>
<path d="M26.51,103.807C26.51,104.713 23.647,105.449 20.114,105.449C16.582,105.449 13.719,104.713 13.719,103.807C13.719,102.9 16.582,102.165 20.114,102.165C23.647,102.166 26.51,102.901 26.51,103.807Z" fill="#140903"/>
<path d="M50.444,103.807C50.444,104.713 47.58,105.449 44.048,105.449C40.515,105.449 37.652,104.713 37.652,103.807C37.652,102.9 40.515,102.165 44.048,102.165C47.58,102.166 50.444,102.901 50.444,103.807Z" fill="#361909"/>
<path d="M48.038,101.151C48.469,101.065 49.654,101.065 55.257,100.893C60.86,100.72 65.816,98.395 65.816,98.395L63.877,96.672L68.726,90.989L66.357,89.524L64.093,81.429L61.399,83.238L56.335,78.156L54.598,80.774L50.827,78.389L50.77,82.889L54.147,84.779L52.74,86.713L56.68,88.513L57.13,91.077L54.992,90.627L52.672,93.142L48.793,97.103L45.992,100.29L48.038,101.151Z" fill="#6D3C1F"/>
<path d="M11.375,92.955C11.375,100.424 20.84,105.568 32.515,105.568L32.515,75.142C20.841,75.142 11.375,85.485 11.375,92.955Z" fill="#140903"/>
<path d="M32.336,75.142L32.336,105.568C44.012,105.568 53.476,100.424 53.476,92.955C53.476,85.485 44.012,75.142 32.336,75.142Z" fill="#361909"/>
<path d="M32.212,65.236C23.112,65.236 15.734,70.584 15.734,77.181C15.734,77.581 15.763,77.967 15.816,78.337C16.521,87.04 20.446,95.514 20.945,104.231C20.948,104.627 21.078,105.004 21.311,105.343L29.82,105.343C30.146,104.857 30.251,104.303 30.079,103.736C28.626,97.913 28.74,92.033 28.372,86.17C29.604,86.283 30.891,86.337 32.214,86.337C32.248,86.337 32.282,86.337 32.316,86.337L32.316,65.236C32.28,65.238 32.246,65.236 32.212,65.236Z" fill="#5D2C10"/>
<path d="M48.692,77.181C48.692,70.609 41.369,65.277 32.316,65.238L32.316,86.338C33.612,86.336 34.873,86.28 36.081,86.169C35.711,92.033 35.827,97.915 34.372,103.737C34.202,104.305 34.306,104.858 34.631,105.345L43.141,105.345C43.373,105.004 43.502,104.629 43.506,104.232C44.02,95.243 48.178,86.513 48.692,77.523C48.692,77.496 48.692,77.27 48.692,77.181Z" fill="#6B3312"/>
<path d="M27.397,108.763C24.721,110.318 21.304,110.204 19.765,108.51C18.226,106.816 19.147,104.184 21.823,102.63C24.5,101.075 27.917,101.189 29.456,102.883C30.996,104.577 30.073,107.21 27.397,108.763Z" fill="#5D2C10"/>
<path d="M37.058,108.763C39.735,110.318 43.152,110.204 44.691,108.51C46.23,106.816 45.308,104.184 42.632,102.63C39.955,101.075 36.538,101.189 34.998,102.883C33.461,104.577 34.382,107.21 37.058,108.763Z" fill="#6B3312"/>
<path d="M26.197,48.587C26.197,48.587 20.674,45.743 19.529,45.784C18.852,45.807 17.941,46.798 17.941,46.798L13.906,52.791L20.133,57.334L26.197,48.587Z" fill="#361909"/>
<path d="M19.057,45.921C19.057,45.921 18.982,45.975 18.86,46.106C18.609,46.379 18.222,47.033 18.342,48.549C18.737,53.562 20.213,62.841 17.049,63.312C16.1,63.454 9.581,57.556 9.187,54.895C8.855,52.661 12.887,49.161 19.057,45.921Z" fill="#5D2C10"/>
<path d="M35.523,48.379C35.523,48.379 39.186,44.019 40.257,43.694C40.891,43.501 42.218,44.124 42.218,44.124L48.894,48.35L44.708,55.256L35.523,48.379Z" fill="#361909"/>
<path d="M40.758,43.67C40.758,43.67 40.856,43.696 41.029,43.778C41.395,43.95 42.075,44.427 42.716,45.858C44.837,50.587 48.081,59.574 51.219,59.006C52.161,58.835 55.224,51.356 54.267,48.787C53.466,46.63 48.03,44.693 40.758,43.67Z" fill="#5D2C10"/>
<path d="M19.737,56.508C19.817,58.263 21.187,59.691 21.592,61.3C21.795,62.108 20.835,67.111 25.398,70.383C25.989,70.805 26.626,71.005 27.485,71.599C28.834,72.528 30.477,73.756 32.213,73.769L32.213,47.34C25.308,47.369 19.442,49.985 19.737,56.508Z" fill="#915533"/>
<path d="M32.335,47.338C32.295,47.338 32.255,47.338 32.215,47.339L32.215,73.767C32.224,73.767 32.233,73.768 32.242,73.768C34.1,73.768 36.048,72.077 37.229,71.178C37.889,70.675 38.03,71.021 38.587,70.681C43.765,67.513 42.87,62.13 43.079,61.3C43.482,59.691 44.738,58.258 44.932,56.508C45.686,49.697 39.292,47.338 32.335,47.338Z" fill="#8A4E2B"/>
<path d="M28.305,66.957L32.213,66.957L32.213,58.868C30.098,58.869 28.377,62.465 28.305,66.957Z" fill="#F0CDB2"/>
<path d="M32.215,58.87L32.215,66.958L36.124,66.958C36.051,62.465 34.33,58.87 32.215,58.87Z" fill="#F0C5A3"/>
<path d="M23.5,72.272C25.021,73.576 27.991,73.325 30.133,71.715C32.274,70.103 32.776,67.741 31.255,66.438L23.5,72.272Z" fill="#F0C5A3"/>
<path d="M31.256,66.438C29.735,65.134 26.765,65.385 24.623,66.997C22.481,68.608 21.979,70.971 23.5,72.273L31.256,66.438Z" fill="#F0D6C2"/>
<path d="M40.857,72.272C39.336,73.576 36.366,73.325 34.225,71.715C32.083,70.103 31.581,67.741 33.102,66.438L40.857,72.272Z" fill="#F0C5A3"/>
<path d="M33.102,66.438C34.623,65.134 37.592,65.385 39.734,66.997C41.876,68.608 42.378,70.971 40.857,72.273L33.102,66.438Z" fill="#F0D6C2"/>
<path d="M27.734,66.322C27.734,67.938 31.018,69.072 32.212,69.164L32.212,64.571C29.727,64.602 27.734,65.373 27.734,66.322Z" fill="#231F20"/>
<path d="M32.356,64.571C32.307,64.571 32.26,64.572 32.211,64.572L32.211,69.166C32.263,69.169 32.312,69.171 32.356,69.171C33.553,69.171 36.979,68.035 36.979,66.322C36.979,65.355 34.91,64.571 32.356,64.571Z" fill="#000000"/>
<path d="M28.37,59.081C28.156,59.556 28.102,58.581 27.281,58.347C26.46,58.113 25.914,58.452 25.4,58.232C24.843,57.994 26.45,57.562 27.271,57.797C28.09,58.031 28.581,58.606 28.37,59.081Z" fill="#5D2C10"/>
<path d="M28.17,59.16C28.17,58.61 27.612,58.164 26.923,58.164C26.234,58.164 25.676,58.61 25.676,59.16C25.676,59.711 26.234,60.157 26.923,60.157C27.61,60.157 28.17,59.711 28.17,59.16Z" fill="#231F20"/>
<path d="M26.748,58.646C26.748,58.523 26.624,58.424 26.47,58.424C26.317,58.424 26.191,58.523 26.191,58.646C26.191,58.77 26.317,58.869 26.47,58.869C26.624,58.869 26.748,58.77 26.748,58.646Z" fill="#FFFFFF"/>
<path d="M36.346,59.081C36.559,59.556 36.614,58.581 37.435,58.347C38.255,58.113 38.802,58.452 39.316,58.232C39.873,57.994 38.266,57.562 37.445,57.797C36.626,58.031 36.134,58.606 36.346,59.081Z" fill="#5D2C10"/>
<path d="M36.547,59.16C36.547,58.61 37.105,58.164 37.794,58.164C38.483,58.164 39.041,58.61 39.041,59.16C39.041,59.711 38.483,60.157 37.794,60.157C37.107,60.157 36.547,59.711 36.547,59.16Z" fill="#231F20"/>
<path d="M37.969,58.646C37.969,58.523 38.093,58.424 38.247,58.424C38.4,58.424 38.526,58.523 38.526,58.646C38.526,58.77 38.4,58.869 38.247,58.869C38.093,58.869 37.969,58.77 37.969,58.646Z" fill="#FFFFFF"/>
<path d="M26.494,56.887C27.151,56.887 27.683,56.629 27.683,56.31C27.683,55.991 27.151,55.732 26.494,55.732C25.837,55.732 25.305,55.991 25.305,56.31C25.305,56.629 25.837,56.887 26.494,56.887Z" fill="#5D2C10"/>
<path d="M39.414,56.31C39.414,56.628 38.881,56.887 38.225,56.887C37.567,56.887 37.035,56.629 37.035,56.31C37.035,55.991 37.568,55.732 38.225,55.732C38.881,55.732 39.414,55.991 39.414,56.31Z" fill="#5D2C10"/>
<path d="M62.994,85.94C62.794,85.718 56.204,85.586 55.89,85.512C54.71,85.231 53.535,84.936 52.35,84.67C50.072,84.158 47.666,84.292 45.392,83.821C44.705,83.678 42.599,82.965 41.928,83.304C41.774,83.382 41.738,83.549 41.732,83.696C41.648,85.991 45.207,85.98 47.126,86.302C47.852,86.424 48.59,86.731 49.31,86.903C47.208,87.315 45.108,87.728 43.006,88.141C41.793,88.38 35.668,89.44 36.07,90.605C36.273,91.191 37.369,91.09 37.939,91.05C40.412,90.871 42.867,90.542 45.278,90.066C43.25,90.502 41.224,90.939 39.198,91.374C38.265,91.574 34.67,92.507 35.159,93.647C35.294,93.962 35.704,94.146 36.119,94.111C39.124,93.86 42.016,93.093 44.804,92.173C42.655,92.822 40.506,93.471 38.355,94.12C37.794,94.289 36.733,94.689 36.769,95.342C36.812,96.131 38.096,96.092 38.69,96.001C41.337,95.595 43.663,95.073 46.187,94.32C44.54,95.288 38.49,96.869 40.169,97.537C40.645,97.725 41.175,97.654 41.679,97.582C44.721,97.142 46.546,96.929 49.59,96.49C50.846,96.309 52.787,95.859 53.975,95.488C55.444,95.031 56.583,94.693 58.081,94.304C60.156,93.767 63.862,92.4 65.641,91.384L62.994,85.94Z" fill="#FFC89F"/>
</svg>
