<svg width="48" height="20" viewBox="0 0 48 20" fill="none" xmlns="http://www.w3.org/2000/svg" xmlns:xlink="http://www.w3.org/1999/xlink">
<path d="M4,20C1.6,19.2 0.333,14.333 0,12L4,14L4,20Z" fill="#2A19BD"/>
<rect  x="0" y="0" width="48" height="16" rx="4" fill="#2A19BD"/>
<path d="M11.043,4L11.727,6.103L13.938,6.103L12.149,7.403L12.832,9.506L11.043,8.206L9.255,9.506L9.938,7.403L8.149,6.103L10.36,6.103L11.043,4Z" fill="#FFFFFF"/>
<path d="M20.172,4L20.856,6.103L23.067,6.103L21.278,7.403L21.961,9.506L20.172,8.206L18.383,9.506L19.067,7.403L17.278,6.103L19.489,6.103L20.172,4Z" fill="#FFFFFF"/>
<path d="M29.305,4L29.988,6.103L32.2,6.103L30.411,7.403L31.094,9.506L29.305,8.206L27.516,9.506L28.2,7.403L26.411,6.103L28.622,6.103L29.305,4Z" fill="#FFFFFF"/>
<path d="M38.434,4L39.117,6.103L41.329,6.103L39.54,7.403L40.223,9.506L38.434,8.206L36.645,9.506L37.328,7.403L35.54,6.103L37.751,6.103L38.434,4Z" fill="#FFFFFF"/>
</svg>
