<svg width="50" height="50" viewBox="0 0 50 50" fill="none" xmlns="http://www.w3.org/2000/svg" xmlns:xlink="http://www.w3.org/1999/xlink">
<path d="M0,6C0,2.686 2.686,0 6,0L44,0C47.314,0 50,2.686 50,6L50,44C50,47.314 47.314,50 44,50L6,50C2.686,50 0,47.314 0,44L0,6Z" fill="#F2EFE9"/>
<path d="M25.999,20C23.623,20 22.43,20.842 20.723,23.848L20.284,24.644L19.573,26.02L19.319,26.528C18.887,27.396 18.292,28.034 17.269,28.812L16.279,29.542C14.587,30.796 13.702,31.778 13.207,33.452C12.984,34.128 12.854,35.158 12.86,36.012C12.86,39.386 15.016,42 17.899,42L18.335,41.988C18.549,41.976 18.756,41.954 18.972,41.92L19.418,41.834L19.656,41.778L20.18,41.632L20.471,41.542L21.497,41.202L22.871,40.716L23.69,40.444C24.643,40.144 25.381,40 25.999,40C26.618,40 27.354,40.146 28.308,40.444L29.127,40.716L30.502,41.2L31.526,41.542L32.088,41.71C32.262,41.758 32.426,41.799 32.579,41.834L33.026,41.92C33.242,41.954 33.449,41.976 33.663,41.988L34.098,42C36.982,42 39.138,39.386 39.138,36C39.138,35.146 39.007,34.122 38.766,33.388C38.341,31.94 37.547,30.942 36.102,29.728L35.639,29.348L34.689,28.588C33.533,27.648 32.883,26.936 32.433,26.032L31.947,25.062L31.494,24.198C29.674,20.806 28.582,20 25.999,20ZM40.002,14L39.948,14C37.754,14.04 35.718,16.132 34.714,19.008C33.472,22.558 34.088,26.448 36.649,27.674C37.11,27.892 37.597,28 38.091,28C40.306,28 42.374,25.894 43.388,22.992C44.622,19.444 44,15.552 41.451,14.328C40.993,14.111 40.499,14 40.002,14ZM20.644,6C20.443,6 20.311,6.004 20.158,6.03L19.991,6.062C17.233,6.474 15.676,10.04 16.197,13.772C16.686,17.222 18.828,20 21.452,20L21.789,19.99L21.94,19.97L22.106,19.938C24.865,19.526 26.42,15.96 25.9,12.228C25.414,8.774 23.272,6 20.644,6Z" fill="#2A19BD"/>
<path d="M31.351,6C28.725,6 26.587,8.776 26.103,12.226C25.581,15.96 27.136,19.526 30.016,19.96C30.199,19.987 30.377,20 30.549,20C33.05,20 35.126,17.47 35.727,14.234L35.801,13.774C36.323,10.04 34.767,6.474 31.888,6.04C31.71,6.012 31.531,5.999 31.351,6ZM11.993,14C11.5,14 11.014,14.108 10.559,14.322C7.992,15.552 7.378,19.446 8.619,22.992C9.632,25.894 11.696,28 13.912,28C14.405,28 14.891,27.892 15.347,27.678C17.913,26.448 18.527,22.554 17.287,19.008C16.274,16.106 14.209,14 11.993,14Z" fill="#2A19BD"/>
</svg>
