<svg width="22" height="22" viewBox="0 0 22 22" fill="none" xmlns="http://www.w3.org/2000/svg" xmlns:xlink="http://www.w3.org/1999/xlink">
<path d="M10.14,21.2C4.53,21.2 0,16.64 0,11.06C0,5.45 4.56,0.92 10.14,0.92C15.72,0.92 20.28,5.48 20.28,11.06C20.28,16.64 15.75,21.2 10.14,21.2ZM10.14,2C5.16,2 1.08,6.05 1.08,11.03C1.08,16.01 5.13,20.09 10.14,20.09C15.15,20.09 19.2,16.04 19.2,11.03C19.2,6.05 15.12,2 10.14,2Z" fill="#000000"/>
<path d="M13.742,15.17C13.592,15.17 13.472,15.11 13.352,15.02L9.752,11.42C9.662,11.33 9.602,11.18 9.602,11.03L9.602,4.46C9.602,4.16 9.842,3.92 10.142,3.92C10.442,3.92 10.682,4.16 10.682,4.46L10.682,10.82L14.102,14.24C14.312,14.45 14.312,14.81 14.102,15.02C14.012,15.11 13.862,15.17 13.742,15.17Z" fill="#000000"/>
</svg>
