<svg width="18" height="22" viewBox="0 0 18 22" fill="none" xmlns="http://www.w3.org/2000/svg" xmlns:xlink="http://www.w3.org/1999/xlink">
<path d="M7.993,-0.002C4.893,-0.002 2.368,2.523 2.368,5.623C2.367,5.69 2.377,5.756 2.398,5.82C2.45,7.794 3.305,9.52 4.31,11.12C5.35,12.774 6.554,14.324 7.326,15.906C7.377,16.011 7.456,16.099 7.554,16.161C7.652,16.223 7.765,16.256 7.881,16.258C7.997,16.259 8.111,16.228 8.211,16.168C8.31,16.108 8.391,16.022 8.444,15.919C9.256,14.338 10.521,12.785 11.614,11.133C12.705,9.48 13.638,7.695 13.638,5.633C13.639,5.553 13.625,5.474 13.596,5.4C13.475,2.406 11.016,-0.002 7.993,-0.002ZM7.993,1.248C10.418,1.248 12.368,3.199 12.368,5.623C12.367,5.667 12.371,5.712 12.38,5.756C12.343,7.391 11.588,8.906 10.571,10.444C9.711,11.745 8.739,13.089 7.9,14.485C7.104,13.095 6.186,11.754 5.37,10.456C4.379,8.878 3.638,7.325 3.638,5.631C3.638,5.595 3.634,5.558 3.628,5.523C3.65,4.38 4.12,3.292 4.936,2.493C5.753,1.693 6.85,1.246 7.993,1.248ZM7.993,3.75C6.965,3.75 6.118,4.598 6.118,5.625C6.118,6.653 6.965,7.5 7.993,7.5C9.021,7.5 9.868,6.653 9.868,5.625C9.868,4.598 9.021,3.75 7.993,3.75ZM7.993,5C8.345,5 8.618,5.273 8.618,5.625C8.618,5.978 8.345,6.25 7.993,6.25C7.91,6.251 7.829,6.236 7.752,6.205C7.676,6.174 7.606,6.128 7.548,6.07C7.49,6.011 7.444,5.942 7.413,5.866C7.382,5.789 7.367,5.707 7.368,5.625C7.368,5.273 7.64,5 7.993,5ZM13.105,11.534C12.96,11.534 12.819,11.585 12.707,11.679C12.595,11.772 12.519,11.901 12.492,12.044C12.466,12.187 12.49,12.335 12.561,12.463C12.631,12.59 12.745,12.689 12.88,12.741C14.126,13.246 14.928,13.908 15.273,14.516C15.619,15.125 15.61,15.651 15.159,16.299C14.253,17.594 11.364,18.741 8.066,18.755C4.768,18.768 1.839,17.651 0.881,16.353C0.403,15.703 0.379,15.174 0.7,14.568C1.023,13.963 1.794,13.295 3.02,12.78C3.099,12.751 3.172,12.706 3.233,12.648C3.295,12.59 3.344,12.52 3.377,12.443C3.411,12.365 3.429,12.282 3.429,12.197C3.43,12.113 3.413,12.029 3.38,11.952C3.348,11.874 3.299,11.803 3.239,11.745C3.178,11.686 3.106,11.64 3.027,11.61C2.948,11.58 2.864,11.566 2.78,11.569C2.696,11.572 2.613,11.593 2.536,11.629C1.136,12.216 0.115,13.006 -0.404,13.983C-0.922,14.958 -0.832,16.135 -0.125,17.095C1.29,19.013 4.514,20.02 8.074,20.005C11.633,19.99 14.826,18.959 16.184,17.018C16.863,16.046 16.909,14.864 16.359,13.899C15.811,12.934 14.768,12.156 13.349,11.583C13.272,11.55 13.189,11.533 13.105,11.533L13.105,11.534Z" fill="#585858"/>
</svg>
