<svg width="28" height="32" viewBox="0 0 28 32" fill="none" xmlns="http://www.w3.org/2000/svg" xmlns:xlink="http://www.w3.org/1999/xlink">
<path d="M25,12L25,23L9,23L9,3L16,3L16,8.5C16,10.432 17.568,12 19.5,12L25,12ZM19,3.242L24.758,9L19.5,9C19.367,9 19.24,8.947 19.146,8.854C19.053,8.76 19,8.633 19,8.5L19,3.242ZM8,0C7.47,0 6.961,0.211 6.586,0.586C6.211,0.961 6,1.47 6,2L6,6L2.5,6C1.12,6 0,7.12 0,8.5L0,29.5C0,30.88 1.12,32 2.5,32L19,32C20.38,32 21.5,30.88 21.5,29.5L21.5,26.16L21.492,26L26,26C26.53,26 27.039,25.789 27.414,25.414C27.789,25.039 28,24.53 28,24L28,8.828C28,8.298 27.789,7.789 27.414,7.414L20.586,0.586C20.211,0.211 19.702,0 19.172,0L8,0ZM6,24L6,9L3,9L3,29L18.5,29L18.5,26.16C18.5,26.107 18.503,26.053 18.508,26L8,26C7.47,26 6.961,25.789 6.586,25.414C6.211,25.039 6,24.53 6,24Z" clip-rule="evenodd" fill-rule="evenodd" fill="#2A19BD"/>
</svg>
