<svg width="18" height="18" viewBox="0 0 18 18" fill="none" xmlns="http://www.w3.org/2000/svg" xmlns:xlink="http://www.w3.org/1999/xlink">
<path d="M5.143,9.064C5.956,10.727 7.303,12.068 8.97,12.874C9.092,12.932 9.226,12.957 9.361,12.946C9.496,12.936 9.625,12.891 9.737,12.816L12.19,11.18C12.299,11.107 12.424,11.063 12.554,11.051C12.683,11.039 12.814,11.06 12.934,11.111L17.524,13.079C17.68,13.145 17.81,13.26 17.895,13.407C17.98,13.553 18.015,13.723 17.994,13.892C17.849,15.027 17.295,16.07 16.436,16.827C15.577,17.583 14.472,18 13.328,18C9.793,18 6.403,16.596 3.904,14.096C1.404,11.597 0,8.207 0,4.672C0,3.528 0.417,2.423 1.174,1.564C1.93,0.705 2.973,0.151 4.108,0.006C4.277,-0.015 4.447,0.02 4.593,0.105C4.74,0.19 4.855,0.32 4.921,0.476L6.89,5.07C6.941,5.189 6.962,5.318 6.951,5.447C6.939,5.576 6.896,5.7 6.826,5.808L5.195,8.299C5.121,8.411 5.077,8.541 5.068,8.675C5.059,8.809 5.084,8.943 5.143,9.064Z" fill="#2A19BD"/>
</svg>
