<svg width="40" height="28" viewBox="0 0 40 28" fill="none" xmlns="http://www.w3.org/2000/svg" xmlns:xlink="http://www.w3.org/1999/xlink">
<path d="M2,0C0.895,0 0,0.895 0,2C0,3.105 0.895,4 2,4L2,0ZM38,4C39.105,4 40,3.105 40,2C40,0.895 39.105,0 38,0L38,4ZM8,12C6.895,12 6,12.895 6,14C6,15.105 6.895,16 8,16L8,12ZM32,16C33.105,16 34,15.105 34,14C34,12.895 33.105,12 32,12L32,16ZM14,24C12.895,24 12,24.895 12,26C12,27.105 12.895,28 14,28L14,24ZM26,28C27.105,28 28,27.105 28,26C28,24.895 27.105,24 26,24L26,28ZM2,4L38,4L38,0L2,0L2,4ZM8,16L32,16L32,12L8,12L8,16ZM14,28L26,28L26,24L14,24L14,28Z" fill="#2A19BD"/>
</svg>
