<svg width="42" height="44" viewBox="0 0 42 44" fill="none" xmlns="http://www.w3.org/2000/svg" xmlns:xlink="http://www.w3.org/1999/xlink">
<path d="M30.5,1L9.5,1C6.716,1.003 4.047,2.11 2.079,4.079C0.11,6.047 -0.997,8.716 -1,11.5L-1,32.5C-0.997,35.284 0.11,37.953 2.079,39.921C4.047,41.89 6.716,42.997 9.5,43L30.5,43C33.284,42.997 35.953,41.89 37.921,39.921C39.89,37.953 40.997,35.284 41,32.5L41,11.5C40.997,8.716 39.89,6.047 37.921,4.079C35.953,2.11 33.284,1.003 30.5,1ZM33.895,17.688L30.771,21.363C30.404,21.799 29.946,22.149 29.43,22.389C28.913,22.629 28.351,22.754 27.781,22.755C27.043,22.754 26.319,22.547 25.692,22.157C24.358,21.333 22.288,20.352 20.002,20.352C17.715,20.352 15.645,21.333 14.312,22.157C13.512,22.658 12.557,22.854 11.624,22.708C10.69,22.563 9.841,22.085 9.231,21.363L6.105,17.688C5.304,16.751 4.899,15.538 4.978,14.308C5.056,13.078 5.612,11.927 6.526,11.1C9.136,8.723 13.592,5.89 20,5.89C26.408,5.89 30.864,8.723 33.474,11.1C34.388,11.927 34.944,13.078 35.022,14.308C35.101,15.538 34.696,16.751 33.895,17.688Z" fill="#FFFFFF"/>
</svg>
