<svg width="42" height="44" viewBox="0 0 42 44" fill="none" xmlns="http://www.w3.org/2000/svg" xmlns:xlink="http://www.w3.org/1999/xlink">
<path d="M39,11L33,11L33,3C33,1.8 32.2,1 31,1L9,1C7.8,1 7,1.8 7,3L7,11L1,11C-0.2,11 -1,11.8 -1,13L-1,41C-1,42.2 -0.2,43 1,43L39,43C40.2,43 41,42.2 41,41L41,13C41,11.8 40.2,11 39,11ZM11,35L9,35C7.8,35 7,34.2 7,33C7,31.8 7.8,31 9,31L11,31C12.2,31 13,31.8 13,33C13,34.2 12.2,35 11,35ZM11,27L9,27C7.8,27 7,26.2 7,25C7,23.8 7.8,23 9,23L11,23C12.2,23 13,23.8 13,25C13,26.2 12.2,27 11,27ZM21,35L19,35C17.8,35 17,34.2 17,33C17,31.8 17.8,31 19,31L21,31C22.2,31 23,31.8 23,33C23,34.2 22.2,35 21,35ZM21,27L19,27C17.8,27 17,26.2 17,25C17,23.8 17.8,23 19,23L21,23C22.2,23 23,23.8 23,25C23,26.2 22.2,27 21,27ZM23,16L22,16L22,17C22,18.2 21.2,19 20,19C18.8,19 18,18.2 18,17L18,16L17,16C15.8,16 15,15.2 15,14C15,12.8 15.8,12 17,12L18,12L18,11C18,9.8 18.8,9 20,9C21.2,9 22,9.8 22,11L22,12L23,12C24.2,12 25,12.8 25,14C25,15.2 24.2,16 23,16ZM31,35L29,35C27.8,35 27,34.2 27,33C27,31.8 27.8,31 29,31L31,31C32.2,31 33,31.8 33,33C33,34.2 32.2,35 31,35ZM31,27L29,27C27.8,27 27,26.2 27,25C27,23.8 27.8,23 29,23L31,23C32.2,23 33,23.8 33,25C33,26.2 32.2,27 31,27Z" fill="#FFFFFF"/>
</svg>
