<svg width="46" height="40" viewBox="0 0 46 40" fill="none" xmlns="http://www.w3.org/2000/svg" xmlns:xlink="http://www.w3.org/1999/xlink">
<path d="M24.349,5.558C25.316,2.155 28.352,0.024 31.119,0.807C32.488,1.202 33.575,2.226 34.182,3.701C34.768,5.12 34.832,6.793 34.373,8.41C33.54,11.339 31.182,13.322 28.775,13.322C28.387,13.322 27.992,13.266 27.603,13.16C24.843,12.37 23.382,8.967 24.349,5.558ZM44.305,17.367C43.874,18.878 42.999,20.177 41.834,21.017C40.973,21.645 40.02,21.97 39.081,21.97C38.7,21.97 38.326,21.913 37.959,21.807C36.674,21.447 35.65,20.48 35.079,19.097C34.535,17.77 34.472,16.21 34.902,14.692C35.806,11.501 38.65,9.511 41.248,10.245C42.533,10.612 43.556,11.579 44.128,12.962C44.672,14.29 44.735,15.85 44.305,17.367ZM9.625,8.41C9.166,6.793 9.229,5.12 9.815,3.701C10.422,2.226 11.509,1.202 12.879,0.807C15.646,0.024 18.681,2.155 19.648,5.558C20.615,8.967 19.154,12.37 16.394,13.16C16.006,13.266 15.61,13.322 15.222,13.322C12.815,13.322 10.457,11.339 9.625,8.41ZM38.834,30.327C39.427,33.362 38.679,36.059 36.773,37.725C35.545,38.805 33.949,39.355 32.185,39.355C31.175,39.355 30.102,39.172 29.015,38.805C26.89,38.092 24.596,37.739 21.999,37.739C19.401,37.739 17.107,38.092 14.982,38.805C11.989,39.814 9.159,39.426 7.225,37.725C5.319,36.059 4.57,33.362 5.163,30.327C6.159,25.273 11.41,20.41 15.646,17.219C17.467,15.92 19.394,15.214 21.413,15.101L21.413,15.08L21.999,15.08C22.006,15.08 22.006,15.08 22.013,15.08L22.281,15.08C22.443,15.087 22.57,15.08 22.592,15.08L22.592,15.101C24.681,15.221 26.665,15.948 28.352,17.219C32.587,20.41 37.839,25.273 38.834,30.327ZM6.039,21.807C5.672,21.913 5.297,21.97 4.916,21.97C3.977,21.97 3.025,21.645 2.163,21.017C0.999,20.177 0.123,18.878 -0.307,17.367C-0.738,15.85 -0.674,14.29 -0.131,12.962C0.441,11.579 1.465,10.612 2.749,10.245C5.347,9.511 8.192,11.501 9.095,14.692C9.526,16.21 9.462,17.77 8.919,19.097C8.347,20.48 7.323,21.447 6.039,21.807Z" fill="#FFFFFF"/>
</svg>
