<svg width="12" height="14" viewBox="0 0 12 14" fill="none" xmlns="http://www.w3.org/2000/svg" xmlns:xlink="http://www.w3.org/1999/xlink">
<path d="M6.179,-0.001C4.302,-0.001 2.773,1.514 2.773,3.374C2.772,3.414 2.779,3.454 2.791,3.492C2.823,4.676 3.341,5.712 3.949,6.672C4.579,7.664 5.308,8.594 5.775,9.544C5.806,9.606 5.854,9.659 5.913,9.696C5.973,9.734 6.041,9.754 6.111,9.755C6.182,9.755 6.251,9.737 6.311,9.701C6.371,9.665 6.42,9.613 6.452,9.551C6.944,8.603 7.71,7.671 8.372,6.68C9.032,5.688 9.597,4.617 9.597,3.38C9.598,3.332 9.589,3.285 9.572,3.24C9.499,1.444 8.01,-0.001 6.179,-0.001ZM6.179,0.749C7.647,0.749 8.828,1.919 8.828,3.374C8.828,3.4 8.83,3.427 8.835,3.454C8.813,4.435 8.356,5.344 7.74,6.266C7.22,7.047 6.631,7.853 6.123,8.691C5.641,7.857 5.085,7.052 4.591,6.274C3.991,5.327 3.542,4.395 3.542,3.379C3.542,3.357 3.54,3.335 3.536,3.314C3.549,2.628 3.834,1.975 4.328,1.496C4.822,1.016 5.487,0.748 6.179,0.749ZM6.179,2.25C5.557,2.25 5.044,2.759 5.044,3.375C5.044,3.992 5.557,4.5 6.179,4.5C6.802,4.5 7.314,3.992 7.314,3.375C7.314,2.759 6.802,2.25 6.179,2.25ZM6.179,3C6.392,3 6.557,3.164 6.557,3.375C6.557,3.587 6.392,3.75 6.179,3.75C6.129,3.751 6.079,3.742 6.033,3.723C5.987,3.704 5.945,3.677 5.91,3.642C5.874,3.607 5.847,3.565 5.828,3.519C5.809,3.474 5.8,3.424 5.8,3.375C5.8,3.164 5.965,3 6.179,3ZM9.274,6.92C9.186,6.92 9.101,6.951 9.033,7.007C8.965,7.063 8.92,7.141 8.903,7.227C8.887,7.312 8.902,7.401 8.945,7.478C8.988,7.554 9.056,7.613 9.138,7.645C9.893,7.948 10.378,8.345 10.587,8.71C10.797,9.075 10.791,9.391 10.518,9.779C9.969,10.556 8.22,11.245 6.223,11.253C4.226,11.261 2.453,10.591 1.873,9.812C1.583,9.422 1.569,9.104 1.763,8.741C1.958,8.378 2.425,7.977 3.168,7.668C3.216,7.651 3.26,7.624 3.297,7.589C3.334,7.554 3.364,7.512 3.384,7.466C3.405,7.419 3.415,7.369 3.416,7.318C3.416,7.268 3.406,7.218 3.386,7.171C3.366,7.124 3.337,7.082 3.3,7.047C3.264,7.012 3.22,6.984 3.172,6.966C3.125,6.948 3.074,6.939 3.022,6.941C2.971,6.943 2.921,6.956 2.875,6.977C2.027,7.33 1.409,7.804 1.095,8.39C0.781,8.975 0.835,9.681 1.264,10.257C2.12,11.408 4.072,12.012 6.228,12.003C8.383,11.994 10.317,11.375 11.139,10.211C11.55,9.628 11.578,8.918 11.245,8.339C10.913,7.76 10.281,7.294 9.422,6.95C9.375,6.93 9.325,6.92 9.274,6.92L9.274,6.92Z" fill="#585858"/>
</svg>
