<svg width="14" height="10" viewBox="0 0 14 10" fill="none" xmlns="http://www.w3.org/2000/svg" xmlns:xlink="http://www.w3.org/1999/xlink">
<path d="M12.768,2.64C13.122,2.216 13.064,1.585 12.64,1.232C12.216,0.878 11.585,0.936 11.232,1.36L12.768,2.64ZM7,8L6.232,8.64C6.422,8.868 6.703,9 7,9C7.297,9 7.578,8.868 7.768,8.64L7,8ZM2.768,1.36C2.415,0.936 1.784,0.878 1.36,1.232C0.936,1.585 0.878,2.216 1.232,2.64L2.768,1.36ZM11.232,1.36L6.232,7.36L7.768,8.64L12.768,2.64L11.232,1.36ZM7.768,7.36L2.768,1.36L1.232,2.64L6.232,8.64L7.768,7.36Z" transform="rotate(-180 7 5)" fill="#FFFFFF"/>
</svg>
