<svg width="40" height="40" viewBox="0 0 40 40" fill="none" xmlns="http://www.w3.org/2000/svg" xmlns:xlink="http://www.w3.org/1999/xlink">
<path d="M4.441,18.58L18.581,4.44C20.834,2.192 23.887,0.929 27.071,0.929C30.254,0.929 33.307,2.192 35.561,4.44C40.241,9.12 40.241,16.72 35.561,21.42L21.421,35.56C16.721,40.24 9.121,40.24 4.441,35.56C2.192,33.307 0.93,30.253 0.93,27.07C0.93,23.887 2.192,20.834 4.441,18.58ZM7.281,21.42C6.284,22.409 5.567,23.644 5.201,25C4.836,26.356 4.836,27.784 5.201,29.14L17.181,17.18L25.661,25.66L32.721,18.58C33.466,17.84 34.058,16.96 34.462,15.99C34.866,15.021 35.074,13.981 35.074,12.93C35.074,11.88 34.866,10.84 34.462,9.87C34.058,8.9 33.466,8.02 32.721,7.28C31.981,6.535 31.101,5.943 30.131,5.539C29.161,5.135 28.121,4.927 27.071,4.927C26.02,4.927 24.98,5.135 24.011,5.539C23.041,5.943 22.161,6.535 21.421,7.28L7.281,21.42Z" fill="#FFFFFF"/>
</svg>
