<svg width="8" height="6" viewBox="0 0 8 6" fill="none" xmlns="http://www.w3.org/2000/svg" xmlns:xlink="http://www.w3.org/1999/xlink">
<path d="M7.604,1.104C7.799,0.908 7.799,0.592 7.604,0.396C7.408,0.201 7.092,0.201 6.896,0.396L7.604,1.104ZM3.75,4.25L3.396,4.604C3.592,4.799 3.908,4.799 4.104,4.604L3.75,4.25ZM0.604,0.396C0.408,0.201 0.092,0.201 -0.104,0.396C-0.299,0.592 -0.299,0.908 -0.104,1.104L0.604,0.396ZM6.896,0.396L3.396,3.896L4.104,4.604L7.604,1.104L6.896,0.396ZM4.104,3.896L0.604,0.396L-0.104,1.104L3.396,4.604L4.104,3.896Z" transform="rotate(-180 3.75 2.5)" fill="#1E1E1E"/>
</svg>
