<svg width="48" height="48" viewBox="0 0 48 48" fill="none" xmlns="http://www.w3.org/2000/svg" xmlns:xlink="http://www.w3.org/1999/xlink">
<path d="M24,5.7C27.48,5.7 30.3,8.52 30.3,12C30.3,15.48 27.48,18.3 24,18.3C20.52,18.3 17.7,15.48 17.7,12C17.7,8.52 20.52,5.7 24,5.7ZM24,32.7C32.91,32.7 42.3,37.08 42.3,39L42.3,42.3L5.7,42.3L5.7,39C5.7,37.08 15.09,32.7 24,32.7ZM24,0C17.37,0 12,5.37 12,12C12,18.63 17.37,24 24,24C30.63,24 36,18.63 36,12C36,5.37 30.63,0 24,0ZM24,27C15.99,27 0,31.02 0,39L0,48L48,48L48,39C48,31.02 32.01,27 24,27Z" fill="#000000"/>
</svg>
