<svg width="42" height="40" viewBox="0 0 42 40" fill="none" xmlns="http://www.w3.org/2000/svg" xmlns:xlink="http://www.w3.org/1999/xlink">
<path d="M39.929,17.534L31.492,24.815L34.062,35.703C34.204,36.294 34.168,36.914 33.958,37.484C33.747,38.055 33.373,38.55 32.881,38.907C32.39,39.265 31.803,39.469 31.196,39.493C30.588,39.517 29.987,39.361 29.469,39.044L20,33.217L10.526,39.044C10.007,39.359 9.407,39.514 8.8,39.489C8.194,39.464 7.609,39.259 7.118,38.902C6.628,38.545 6.254,38.051 6.044,37.481C5.834,36.912 5.797,36.293 5.937,35.703L8.517,24.815L0.08,17.534C-0.379,17.138 -0.711,16.615 -0.874,16.031C-1.038,15.447 -1.025,14.828 -0.839,14.25C-0.652,13.673 -0.3,13.164 0.174,12.786C0.648,12.408 1.223,12.178 1.827,12.125L12.89,11.232L17.157,0.905C17.388,0.342 17.782,-0.139 18.287,-0.478C18.792,-0.817 19.387,-0.998 19.995,-0.998C20.604,-0.998 21.198,-0.817 21.704,-0.478C22.209,-0.139 22.602,0.342 22.833,0.905L27.099,11.232L38.161,12.125C38.767,12.176 39.343,12.405 39.819,12.782C40.295,13.16 40.649,13.669 40.837,14.247C41.024,14.825 41.037,15.445 40.874,16.03C40.71,16.615 40.378,17.139 39.918,17.536L39.929,17.534Z" fill="#000000"/>
</svg>
