<svg width="150" height="152" viewBox="0 0 150 152" fill="none" xmlns="http://www.w3.org/2000/svg" xmlns:xlink="http://www.w3.org/1999/xlink">
<path d="M74,151C83.849,151 93.602,149.06 102.701,145.291C111.801,141.522 120.069,135.997 127.033,129.033C133.997,122.069 139.522,113.801 143.291,104.701C147.06,95.602 149,85.849 149,76C149,66.151 147.06,56.398 143.291,47.299C139.522,38.199 133.997,29.931 127.033,22.967C120.069,16.003 111.801,10.478 102.701,6.709C93.602,2.94 83.849,1 74,1C54.109,1 35.032,8.902 20.967,22.967C6.902,37.032 -1,56.109 -1,76C-1,95.891 6.902,114.968 20.967,129.033C35.032,143.098 54.109,151 74,151ZM72.067,106.333L113.733,56.333L100.933,45.667L65.1,88.658L46.558,70.108L34.775,81.892L59.775,106.892L66.225,113.342L72.067,106.333Z" clip-rule="evenodd" fill-rule="evenodd" fill="#2A19BD"/>
</svg>
