<svg width="50" height="48" viewBox="0 0 50 48" fill="none" xmlns="http://www.w3.org/2000/svg" xmlns:xlink="http://www.w3.org/1999/xlink">
<path d="M25.801,14.859L27.726,1.856C27.885,0.788 28.71,0 29.676,0C30.301,0 30.885,0.328 31.26,0.891L32.668,3L37.01,3C38.068,3 39.085,3.478 39.835,4.322L41.335,6L46.001,6C47.11,6 48.001,7.003 48.001,8.25L48.001,10.5C48.001,14.644 45.018,18 41.335,18L35.56,18L35.135,20.859L25.801,14.859ZM34.668,24.009L34.668,45C34.668,46.659 33.476,48 32.001,48L29.335,48C27.86,48 26.668,46.659 26.668,45L26.668,34.2C24.668,35.353 22.401,36 20.001,36C17.601,36 15.335,35.353 13.335,34.2L13.335,45C13.335,46.659 12.143,48 10.668,48L8.001,48C6.526,48 5.335,46.659 5.335,45L5.335,23.419C2.935,22.397 1.051,20.109 0.401,17.184L0.085,15.731C-0.274,14.128 0.593,12.497 2.026,12.094C3.46,11.691 4.901,12.666 5.26,14.278L5.585,15.731C5.876,17.063 6.943,18 8.168,18L25.318,18L34.668,24.009ZM38.668,7.5C38.668,7.102 38.528,6.721 38.278,6.439C38.028,6.158 37.688,6 37.335,6C36.981,6 36.642,6.158 36.392,6.439C36.142,6.721 36.001,7.102 36.001,7.5C36.001,7.898 36.142,8.279 36.392,8.561C36.642,8.842 36.981,9 37.335,9C37.688,9 38.028,8.842 38.278,8.561C38.528,8.279 38.668,7.898 38.668,7.5Z" fill="#FFFFFF"/>
</svg>
