<svg width="80" height="80" viewBox="0 0 80 80" fill="none" xmlns="http://www.w3.org/2000/svg" xmlns:xlink="http://www.w3.org/1999/xlink">
<path d="M40,0C17.909,0 0,17.909 0,40C0,62.092 17.909,80 40,80C62.092,80 80,62.092 80,40C80,17.909 62.092,0 40,0ZM40,75.079C20.701,75.079 5,59.299 5,40C5,20.701 20.701,5 40,5C59.299,5 75,20.701 75,40C75,59.299 59.299,75.079 40,75.079ZM57.5,37.5L42.5,37.5L42.5,22.5C42.5,21.12 41.38,20 40,20C38.62,20 37.5,21.12 37.5,22.5L37.5,37.5L22.5,37.5C21.12,37.5 20,38.62 20,40C20,41.38 21.12,42.5 22.5,42.5L37.5,42.5L37.5,57.5C37.5,58.88 38.62,60 40,60C41.38,60 42.5,58.88 42.5,57.5L42.5,42.5L57.5,42.5C58.88,42.5 60,41.38 60,40C60,38.62 58.88,37.5 57.5,37.5Z" fill="#000000"/>
</svg>
