<svg width="34" height="38" viewBox="0 0 34 38" fill="none" xmlns="http://www.w3.org/2000/svg" xmlns:xlink="http://www.w3.org/1999/xlink">
<path d="M19.664,37.602C25.916,36.35 34,31.852 34,20.222C34,9.64 26.254,2.592 20.684,-0.646C19.446,-1.366 18,-0.42 18,1.01L18,4.666C18,7.55 16.788,12.814 13.42,15.004C11.7,16.122 9.84,14.448 9.632,12.408L9.46,10.732C9.26,8.784 7.276,7.602 5.72,8.79C2.922,10.92 0,14.66 0,20.22C0,34.442 10.578,38 15.866,38C16.175,38 16.498,37.99 16.834,37.97C14.222,37.748 10,36.128 10,30.888C10,26.788 12.99,24.018 15.262,22.668C15.874,22.308 16.588,22.778 16.588,23.488L16.588,24.668C16.588,25.568 16.938,26.978 17.768,27.942C18.708,29.034 20.086,27.89 20.196,26.454C20.232,26.002 20.688,25.714 21.08,25.942C22.362,26.692 24,28.292 24,30.888C24,34.984 21.742,36.868 19.664,37.602Z" fill="#2A19BD"/>
</svg>
