<svg width="48" height="48" viewBox="0 0 48 48" fill="none" xmlns="http://www.w3.org/2000/svg" xmlns:xlink="http://www.w3.org/1999/xlink">
<path d="M24,0C14.029,0 6,6.117 6,13.714L6,16C2.7,16 0,18.057 0,20.571L0,43.429C0,45.943 2.7,48 6,48L42,48C45.3,48 48,45.943 48,43.429L48,20.571C48,18.057 45.3,16 42,16L42,13.714C42,6.117 33.971,0 24,0ZM24,4.571C30.829,4.571 36,8.512 36,13.714L36,16L12,16L12,13.714C12,8.512 17.171,4.571 24,4.571ZM24,27.429C27.3,27.429 30,29.486 30,32C30,34.514 27.3,36.571 24,36.571C20.7,36.571 18,34.514 18,32C18,29.486 20.7,27.429 24,27.429Z" fill="#000000"/>
</svg>
