<svg width="20" height="28" viewBox="0 0 20 28" fill="none" xmlns="http://www.w3.org/2000/svg" xmlns:xlink="http://www.w3.org/1999/xlink">
<path d="M10.001,13.333C9.117,13.333 8.269,12.982 7.644,12.357C7.019,11.732 6.668,10.884 6.668,10C6.668,9.116 7.019,8.268 7.644,7.643C8.269,7.018 9.117,6.667 10.001,6.667C10.885,6.667 11.733,7.018 12.358,7.643C12.983,8.268 13.335,9.116 13.335,10C13.335,10.438 13.248,10.871 13.081,11.275C12.913,11.68 12.668,12.047 12.358,12.357C12.049,12.666 11.681,12.912 11.277,13.079C10.872,13.247 10.439,13.333 10.001,13.333ZM10.001,0.667C7.526,0.667 5.152,1.65 3.402,3.4C1.651,5.151 0.668,7.524 0.668,10C0.668,17 10.001,27.333 10.001,27.333C10.001,27.333 19.335,17 19.335,10C19.335,7.524 18.351,5.151 16.601,3.4C14.851,1.65 12.477,0.667 10.001,0.667Z" fill="#000000"/>
</svg>
