<svg width="28" height="44" viewBox="0 0 28 44" fill="none" xmlns="http://www.w3.org/2000/svg" xmlns:xlink="http://www.w3.org/1999/xlink">
<path d="M28,36.509L28,41.724C28,42.328 27.767,42.907 27.352,43.333C26.938,43.76 26.376,44 25.789,44C25.203,44 24.641,43.76 24.226,43.333C23.812,42.907 23.579,42.328 23.579,41.724L23.579,36.509C23.586,34.394 23.017,32.319 21.937,30.52C20.857,28.721 19.309,27.269 17.469,26.33L8.553,21.74C5.977,20.425 3.81,18.393 2.298,15.875C0.786,13.356 -0.01,10.452 0,7.491L0,2.276C0,1.672 0.233,1.093 0.648,0.667C1.062,0.24 1.624,0 2.211,0C2.797,0 3.359,0.24 3.774,0.667C4.188,1.093 4.421,1.672 4.421,2.276L4.421,7.491C4.414,9.606 4.983,11.681 6.063,13.48C7.143,15.279 8.691,16.731 10.531,17.67L19.447,22.26C22.023,23.575 24.19,25.607 25.702,28.125C27.214,30.644 28.01,33.548 28,36.509ZM18.421,36.414L4.421,36.414C4.431,35.387 4.576,34.366 4.852,33.379L15.205,33.379C15.791,33.379 16.353,33.14 16.768,32.713C17.182,32.286 17.415,31.707 17.415,31.103C17.415,30.5 17.182,29.921 16.768,29.494C16.353,29.067 15.791,28.828 15.205,28.828L7.324,28.828C7.508,28.619 7.693,28.414 7.901,28.219C8.328,27.805 8.578,27.234 8.596,26.63C8.613,26.027 8.398,25.441 7.996,25.001C7.594,24.562 7.039,24.304 6.453,24.286C5.867,24.268 5.298,24.49 4.871,24.904C3.336,26.396 2.112,28.195 1.275,30.19C0.438,32.185 0.004,34.335 0,36.509L0,41.724C0,42.328 0.233,42.907 0.648,43.333C1.062,43.76 1.624,44 2.211,44C2.797,44 3.359,43.76 3.774,43.333C4.188,42.907 4.421,42.328 4.421,41.724L4.421,40.966L18.421,40.966C19.007,40.966 19.57,40.726 19.984,40.299C20.399,39.872 20.632,39.293 20.632,38.69C20.632,38.086 20.399,37.507 19.984,37.08C19.57,36.654 19.007,36.414 18.421,36.414ZM25.789,0C25.203,0 24.641,0.24 24.226,0.667C23.812,1.093 23.579,1.672 23.579,2.276L23.579,3.034L9.579,3.034C8.993,3.034 8.43,3.274 8.016,3.701C7.601,4.128 7.368,4.707 7.368,5.31C7.368,5.914 7.601,6.493 8.016,6.92C8.43,7.346 8.993,7.586 9.579,7.586L23.579,7.586C23.569,8.613 23.424,9.634 23.148,10.621L12.792,10.621C12.205,10.621 11.643,10.86 11.229,11.287C10.814,11.714 10.581,12.293 10.581,12.897C10.581,13.5 10.814,14.079 11.229,14.506C11.643,14.933 12.205,15.172 12.792,15.172L20.676,15.172C20.492,15.381 20.307,15.586 20.099,15.781C19.672,16.195 19.422,16.766 19.404,17.37C19.387,17.973 19.602,18.559 20.004,18.999C20.406,19.438 20.961,19.696 21.547,19.714C22.133,19.732 22.702,19.51 23.129,19.096C24.664,17.604 25.888,15.805 26.725,13.81C27.562,11.815 27.996,9.665 28,7.491L28,2.276C28,1.672 27.767,1.093 27.352,0.667C26.938,0.24 26.376,0 25.789,0Z" fill="#FFFFFF"/>
</svg>
