<svg width="46" height="46" viewBox="0 0 46 46" fill="none" xmlns="http://www.w3.org/2000/svg" xmlns:xlink="http://www.w3.org/1999/xlink">
<path d="M6.863,0C3.863,0 0.859,2.25 0.859,6.75L6.863,18.75L12.863,6.75C12.863,2.25 9.863,0 6.863,0ZM33.328,3.656C32.681,3.683 32.053,3.806 31.528,3.919L31.884,5.569C32.409,5.452 32.953,5.377 33.413,5.344L33.328,3.656ZM6.863,3.75C8.522,3.75 9.863,5.093 9.863,6.75C9.863,8.409 8.522,9.75 6.863,9.75C5.206,9.75 3.863,8.409 3.863,6.75C3.863,5.093 5.206,3.75 6.863,3.75ZM35.194,3.769L34.913,5.428C35.372,5.525 35.831,5.646 36.234,5.887L37.05,4.406C36.478,4.102 35.841,3.828 35.194,3.769ZM29.803,4.397C29.231,4.62 28.659,4.82 28.172,5.016L28.838,6.563C29.353,6.343 29.897,6.152 30.356,5.991L29.803,4.397ZM38.588,5.653L37.303,6.75C37.641,7.136 37.903,7.613 38.109,7.997L39.619,7.238C39.3,6.623 39.019,6.158 38.588,5.653ZM26.606,5.738C26.034,6.029 25.566,6.289 25.059,6.544L25.884,8.025C26.372,7.744 26.906,7.472 27.338,7.256L26.606,5.738ZM23.578,7.416C23.081,7.706 22.594,7.997 22.116,8.316L23.034,9.722C23.494,9.422 23.972,9.141 24.441,8.859L23.578,7.416ZM40.2,9.094C39.647,9.188 39.084,9.253 38.531,9.319C38.569,9.788 38.541,10.294 38.447,10.688L40.088,11.072C40.181,10.397 40.266,9.703 40.2,9.094ZM20.691,9.253C20.222,9.572 19.762,9.9 19.294,10.219L20.269,11.597C20.719,11.269 21.178,10.959 21.638,10.641L20.691,9.253ZM17.916,11.231C17.447,11.569 16.959,11.944 16.556,12.253L17.578,13.594C18.094,13.219 18.45,12.938 18.919,12.591L17.916,11.231ZM37.884,11.981C37.603,12.413 37.275,12.844 36.947,13.172L38.175,14.344C38.578,13.866 39.009,13.378 39.309,12.891L37.884,11.981ZM15.216,13.303C14.756,13.659 14.297,14.025 13.894,14.363L14.963,15.666C15.403,15.3 15.853,14.925 16.266,14.625L15.216,13.303ZM35.784,14.25C35.353,14.597 34.903,14.934 34.491,15.216L35.456,16.603C35.953,16.266 36.441,15.9 36.863,15.563L35.784,14.25ZM12.591,15.459C12.15,15.816 11.728,16.191 11.297,16.556L12.394,17.841C12.816,17.475 13.238,17.109 13.669,16.753L12.591,15.459ZM33.113,16.116C32.634,16.397 32.138,16.688 31.688,16.931L32.494,18.422C33,18.113 33.572,17.841 33.994,17.559L33.113,16.116ZM10.012,17.672C9.591,18.047 9.178,18.422 8.756,18.806L9.891,20.062C10.303,19.688 10.725,19.313 11.137,18.938L10.012,17.672ZM30.216,17.709C29.719,17.953 29.222,18.206 28.725,18.45L29.447,19.969C30.028,19.688 30.459,19.453 30.984,19.209L30.216,17.709ZM27.216,19.153C26.7,19.387 26.203,19.613 25.678,19.828L26.363,21.375C26.878,21.15 27.394,20.916 27.909,20.681L27.216,19.153ZM7.519,19.969C7.041,20.391 6.708,20.719 6.272,21.141L7.463,22.359C7.903,21.938 8.259,21.572 8.672,21.216L7.519,19.969ZM24.141,20.513C23.625,20.728 23.109,20.953 22.594,21.169L23.25,22.734C23.775,22.519 24.291,22.294 24.806,22.069L24.141,20.513ZM21.038,21.825C20.522,22.05 20.006,22.275 19.481,22.481L20.138,24.047C20.653,23.831 21.178,23.606 21.694,23.391L21.038,21.825ZM38.363,22.5C35.363,22.5 32.363,24.75 32.363,29.25L38.363,41.25L44.363,29.25C44.363,24.75 41.363,22.5 38.363,22.5ZM17.925,23.137C17.391,23.381 16.828,23.606 16.369,23.803L17.034,25.359C17.588,25.125 18.113,24.9 18.581,24.694L17.925,23.137ZM14.813,24.469C14.306,24.703 13.716,24.966 13.266,25.172L13.959,26.709C14.512,26.466 15,26.222 15.488,26.016L14.813,24.469ZM11.719,25.875C11.194,26.128 10.65,26.391 10.181,26.625L10.941,28.134C11.447,27.872 11.972,27.628 12.431,27.403L11.719,25.875ZM38.363,26.25C40.022,26.25 41.363,27.591 41.363,29.25C41.363,30.909 40.022,32.25 38.363,32.25C36.703,32.25 35.363,30.909 35.363,29.25C35.363,27.591 36.703,26.25 38.363,26.25ZM8.662,27.403C8.166,27.675 7.669,27.956 7.162,28.247L8.006,29.709C8.484,29.428 8.972,29.166 9.459,28.903L8.662,27.403ZM5.691,29.156C5.165,29.456 4.657,29.859 4.219,30.15L5.241,31.5C5.707,31.163 6.208,30.816 6.609,30.572L5.691,29.156ZM2.887,31.275C2.438,31.688 1.994,32.166 1.65,32.569L2.934,33.666C3.295,33.225 3.609,32.897 4.031,32.522L2.887,31.275ZM23.306,31.397L23.456,33.075C23.944,32.991 24.431,33.047 24.919,33.122L25.209,31.463C24.591,31.369 23.934,31.303 23.306,31.397ZM19.819,32.334L20.456,33.9C20.944,33.684 21.45,33.516 21.966,33.356C21.788,32.822 21.656,32.278 21.516,31.734C20.925,31.903 20.334,32.128 19.819,32.334ZM27.084,32.25L26.128,33.637C26.522,33.928 26.906,34.237 27.216,34.622L28.491,33.516C28.013,33.028 27.647,32.569 27.084,32.25ZM18.225,33.094C17.709,33.356 17.213,33.656 16.716,33.947L17.569,35.4C18.056,35.138 18.534,34.828 19.012,34.575L18.225,33.094ZM0.62,34.125C0.337,34.734 0.107,35.391 0,35.972L1.659,36.262C1.761,35.728 1.906,35.344 2.119,34.884C1.604,34.659 1.113,34.388 0.62,34.125ZM15.253,34.856C14.775,35.166 14.306,35.475 13.838,35.794L14.775,37.2C15.244,36.891 15.703,36.572 16.172,36.262L15.253,34.856ZM29.569,34.969L28.153,35.887C28.453,36.337 28.744,36.806 29.016,37.284L30.478,36.441C30.15,35.916 29.916,35.447 29.569,34.969ZM12.441,36.75C11.972,37.059 11.503,37.359 11.044,37.688L11.981,39.094C12.431,38.766 12.909,38.456 13.387,38.137L12.441,36.75ZM1.678,37.641C1.135,37.753 0.588,37.847 0.042,37.95C0.141,38.606 0.404,39.244 0.642,39.75L2.166,39.019C1.962,38.55 1.769,38.062 1.678,37.641ZM31.313,37.903L29.85,38.747C30.141,39.253 30.478,39.797 30.75,40.228L32.166,39.319C31.847,38.822 31.575,38.353 31.313,37.903ZM9.656,38.606C9.188,38.897 8.728,39.178 8.241,39.45L9.075,40.922C9.572,40.631 10.069,40.341 10.547,40.031L9.656,38.606ZM2.972,40.134L1.819,41.372C2.34,41.869 2.983,42.197 3.684,42.347L4.059,40.706C3.643,40.622 3.254,40.416 2.972,40.134ZM6.816,40.162C6.346,40.378 5.858,40.547 5.353,40.65L5.738,42.3C6.339,42.178 6.906,41.953 7.472,41.719L6.816,40.162ZM33.094,40.613L31.791,41.672C32.194,42.169 32.691,42.647 33.122,42.984L34.163,41.653C33.75,41.334 33.394,40.95 33.094,40.613ZM35.353,42.253L34.931,43.894C35.672,44.044 36.225,44.091 36.919,44.016L36.713,42.338C36.253,42.413 35.803,42.366 35.353,42.253Z" fill="#FFFFFF"/>
</svg>
