<svg width="26" height="32" viewBox="0 0 26 32" fill="none" xmlns="http://www.w3.org/2000/svg" xmlns:xlink="http://www.w3.org/1999/xlink">
<path d="M10,4L6,4C5.081,4 4.171,4.181 3.321,4.533C2.472,4.885 1.7,5.4 1.05,6.05C0.4,6.7 -0.115,7.472 -0.467,8.321C-0.819,9.171 -1,10.081 -1,11C-1,11.919 -0.819,12.829 -0.467,13.679C-0.115,14.528 0.4,15.3 1.05,15.95C1.7,16.6 2.472,17.115 3.321,17.467C4.171,17.819 5.081,18 6,18L10,18L10,24L1,24L1,28L10,28L10,32L14,32L14,28L18,28C19.857,28 21.637,27.263 22.95,25.95C24.263,24.637 25,22.857 25,21C25,19.143 24.263,17.363 22.95,16.05C21.637,14.738 19.857,14 18,14L14,14L14,8L23,8L23,4L14,4L14,0L10,0L10,4ZM14,18L18,18C18.796,18 19.559,18.316 20.121,18.879C20.684,19.441 21,20.204 21,21C21,21.796 20.684,22.559 20.121,23.121C19.559,23.684 18.796,24 18,24L14,24L14,18ZM10,14L6,14C5.606,14 5.216,13.922 4.852,13.772C4.488,13.621 4.157,13.4 3.879,13.121C3.6,12.843 3.379,12.512 3.228,12.148C3.078,11.784 3,11.394 3,11C3,10.606 3.078,10.216 3.228,9.852C3.379,9.488 3.6,9.157 3.879,8.879C4.157,8.6 4.488,8.379 4.852,8.228C5.216,8.078 5.606,8 6,8L10,8L10,14Z" fill="#000000"/>
</svg>
