<svg width="36" height="40" viewBox="0 0 36 40" fill="none" xmlns="http://www.w3.org/2000/svg" xmlns:xlink="http://www.w3.org/1999/xlink">
<path d="M16.5,0.146C15.288,0.372 13.864,0.86 11.676,1.61L10.53,2C4.516,4.06 1.51,5.088 0.756,6.164C0.016,7.216 0,10.3 0,16.42L16.5,10.92L16.5,0.146ZM16.5,14.08L0,19.58L0,19.982C0,31.258 8.478,36.73 13.798,39.054C14.818,39.5 15.478,39.788 16.5,39.918L16.5,14.08ZM19.5,39.92L19.5,14.08L36,19.58L36,19.982C36,31.258 27.522,36.73 22.202,39.054C21.182,39.5 20.522,39.79 19.5,39.92ZM19.5,10.92L19.5,0.144C20.712,0.37 22.136,0.858 24.324,1.608L25.47,2C31.484,4.058 34.49,5.086 35.244,6.162C35.984,7.214 36,10.298 36,16.416L19.5,10.92Z" fill="#FFFFFF"/>
</svg>
