<svg width="78" height="86" viewBox="0 0 78 86" fill="none" xmlns="http://www.w3.org/2000/svg" xmlns:xlink="http://www.w3.org/1999/xlink">
<path d="M60.835,46.167L60.835,50.333C60.835,61.875 58.068,73.021 52.856,83.025L51.91,84.775L44.635,80.717C49.501,71.991 52.19,62.22 52.472,52.233L52.501,50.333L52.501,46.167L60.835,46.167ZM35.835,33.667L44.168,33.667L44.168,50.333L44.147,51.912C43.832,63.32 39.907,74.333 32.935,83.367L31.972,84.575L25.518,79.308C31.878,71.541 35.495,61.892 35.81,51.858L35.835,50.333L35.835,33.667ZM40.001,17C45.527,17 50.826,19.195 54.733,23.102C58.64,27.009 60.835,32.308 60.835,37.833L52.501,37.833C52.501,34.518 51.184,31.339 48.84,28.994C46.496,26.65 43.317,25.333 40.001,25.333C36.686,25.333 33.507,26.65 31.162,28.994C28.818,31.339 27.501,34.518 27.501,37.833L27.501,50.333C27.501,59.646 24.085,68.433 18.043,75.237L17.16,76.196L11.126,70.446C15.999,65.345 18.849,58.644 19.143,51.596L19.168,50.333L19.168,37.833C19.168,32.308 21.363,27.009 25.27,23.102C29.177,19.195 34.476,17 40.001,17ZM40.001,0.333C49.947,0.333 59.485,4.284 66.518,11.317C73.55,18.349 77.501,27.888 77.501,37.833L77.501,50.333C77.501,57.408 76.664,64.375 75.018,71.125L74.435,73.371L66.393,71.179C68.026,65.192 68.951,59.004 69.135,52.7L69.168,50.333L69.168,37.833C69.168,32.42 67.662,27.114 64.817,22.508C61.973,17.903 57.904,14.179 53.064,11.755C48.224,9.331 42.805,8.301 37.413,8.782C32.021,9.262 26.87,11.233 22.535,14.475L16.597,8.533C23.236,3.213 31.493,0.32 40.001,0.333ZM10.701,14.429L16.643,20.367C13.07,25.131 11.048,30.878 10.851,36.829L10.835,37.833L10.851,46.167C10.851,50.833 9.751,55.346 7.68,59.404L7.026,60.612L-0.207,56.479C1.372,53.708 2.293,50.617 2.48,47.383L2.518,46.167L2.518,37.833C2.493,29.326 5.381,21.067 10.701,14.429Z" fill="#FFFFFF"/>
</svg>
