<svg width="42" height="42" viewBox="0 0 42 42" fill="none" xmlns="http://www.w3.org/2000/svg" xmlns:xlink="http://www.w3.org/1999/xlink">
<path d="M7.5,5.25C7.895,5.25 8.283,5.146 8.626,4.949C8.968,4.751 9.252,4.467 9.449,4.125C9.647,3.783 9.751,3.395 9.751,3C9.751,2.605 9.647,2.217 9.449,1.875C9.252,1.533 8.968,1.249 8.626,1.051C8.284,0.854 7.896,0.75 7.501,0.75C7.106,0.75 6.718,0.854 6.376,1.051C6.034,1.249 5.749,1.533 5.552,1.875L5.25,1.875C4.355,1.875 3.497,2.231 2.864,2.864C2.231,3.496 1.876,4.355 1.876,5.25L1.876,15.375C1.255,15.375 0.745,15.88 0.801,16.499C1.028,18.99 2.005,21.354 3.603,23.279C5.2,25.203 7.344,26.599 9.75,27.281L9.75,30C9.75,31.469 10.69,32.72 12,33.184C12.012,35.347 12.883,37.417 14.421,38.938C15.959,40.459 18.039,41.307 20.202,41.295C22.365,41.283 24.435,40.412 25.956,38.874C27.477,37.336 28.325,35.257 28.313,33.094L28.313,28.594C28.313,27.475 28.757,26.402 29.549,25.611C30.34,24.819 31.413,24.375 32.532,24.375C33.651,24.375 34.724,24.819 35.515,25.611C36.306,26.402 36.75,27.475 36.75,28.594L36.75,31.316C35.999,31.582 35.367,32.104 34.964,32.791C34.56,33.478 34.413,34.285 34.548,35.07C34.683,35.855 35.09,36.567 35.699,37.081C36.308,37.594 37.079,37.876 37.875,37.876C38.672,37.876 39.443,37.594 40.052,37.081C40.661,36.567 41.068,35.855 41.203,35.07C41.338,34.285 41.19,33.478 40.787,32.791C40.384,32.104 39.751,31.582 39,31.316L39,28.594C39,26.878 38.319,25.233 37.106,24.02C35.893,22.807 34.247,22.125 32.532,22.125C30.816,22.125 29.171,22.807 27.958,24.02C26.744,25.233 26.063,26.878 26.063,28.594L26.063,33.094C26.075,34.66 25.464,36.167 24.365,37.283C23.266,38.399 21.768,39.033 20.202,39.045C18.635,39.057 17.128,38.446 16.012,37.347C14.896,36.248 14.262,34.75 14.25,33.184C14.909,32.951 15.479,32.52 15.882,31.95C16.285,31.379 16.501,30.698 16.5,30L16.5,27.281C18.907,26.599 21.051,25.203 22.648,23.279C24.246,21.354 25.223,18.99 25.45,16.499C25.506,15.88 24.996,15.375 24.375,15.375L24.375,5.25C24.375,4.355 24.02,3.496 23.387,2.864C22.754,2.231 21.896,1.875 21,1.875L20.699,1.875C20.451,1.446 20.069,1.111 19.611,0.921C19.154,0.732 18.647,0.699 18.168,0.827C17.69,0.955 17.267,1.237 16.965,1.63C16.664,2.023 16.501,2.505 16.5,3C16.501,3.495 16.664,3.977 16.965,4.37C17.267,4.763 17.69,5.045 18.168,5.173C18.647,5.301 19.154,5.268 19.611,5.079C20.069,4.889 20.451,4.554 20.699,4.125L21,4.125C21.299,4.125 21.585,4.244 21.796,4.454C22.007,4.665 22.125,4.952 22.125,5.25L22.125,15.375L22.362,15.375C21.74,15.375 21.245,15.881 21.158,16.497C20.886,18.434 19.923,20.207 18.447,21.49C16.971,22.774 15.081,23.48 13.125,23.48C11.17,23.48 9.28,22.774 7.804,21.49C6.327,20.207 5.365,18.434 5.093,16.497C5.006,15.881 4.511,15.375 3.889,15.375L4.125,15.375L4.125,5.25C4.125,4.952 4.244,4.665 4.455,4.454C4.666,4.244 4.952,4.125 5.25,4.125L5.552,4.125C5.749,4.467 6.033,4.751 6.376,4.949C6.718,5.146 7.106,5.25 7.5,5.25Z" fill="#FFFFFF"/>
</svg>
