<svg width="28" height="40" viewBox="0 0 28 40" fill="none" xmlns="http://www.w3.org/2000/svg" xmlns:xlink="http://www.w3.org/1999/xlink">
<path d="M14,19C12.674,19 11.402,18.473 10.464,17.536C9.527,16.598 9,15.326 9,14C9,12.674 9.527,11.402 10.464,10.464C11.402,9.527 12.674,9 14,9C15.326,9 16.598,9.527 17.536,10.464C18.473,11.402 19,12.674 19,14C19,14.657 18.871,15.307 18.619,15.913C18.368,16.52 18,17.071 17.536,17.536C17.071,18 16.52,18.368 15.913,18.619C15.307,18.871 14.657,19 14,19ZM14,0C10.287,0 6.726,1.475 4.101,4.1C1.475,6.726 0,10.287 0,14C0,24.5 14,40 14,40C14,40 28,24.5 28,14C28,10.287 26.525,6.726 23.899,4.1C21.274,1.475 17.713,0 14,0Z" fill="#2A19BD"/>
</svg>
