<svg width="46" height="46" viewBox="0 0 46 46" fill="none" xmlns="http://www.w3.org/2000/svg" xmlns:xlink="http://www.w3.org/1999/xlink">
<path d="M6.683,-0.031C3.683,-0.031 0.679,2.219 0.679,6.719L6.683,18.719L12.683,6.719C12.683,2.219 9.683,-0.031 6.683,-0.031ZM33.149,3.625C32.502,3.652 31.874,3.775 31.349,3.887L31.705,5.538C32.23,5.42 32.774,5.346 33.233,5.313L33.149,3.625ZM6.683,3.719C8.342,3.719 9.683,5.062 9.683,6.719C9.683,8.378 8.342,9.719 6.683,9.719C5.026,9.719 3.683,8.378 3.683,6.719C3.683,5.062 5.026,3.719 6.683,3.719ZM35.014,3.738L34.733,5.397C35.192,5.493 35.652,5.614 36.055,5.856L36.87,4.375C36.299,4.07 35.661,3.797 35.014,3.738ZM29.624,4.366C29.052,4.589 28.48,4.788 27.992,4.984L28.658,6.531C29.174,6.312 29.717,6.121 30.177,5.959L29.624,4.366ZM38.408,5.622L37.124,6.719C37.461,7.105 37.724,7.581 37.93,7.966L39.439,7.206C39.12,6.592 38.839,6.127 38.408,5.622ZM26.427,5.706C25.855,5.998 25.386,6.258 24.88,6.513L25.705,7.994C26.192,7.712 26.727,7.441 27.158,7.225L26.427,5.706ZM23.399,7.384C22.902,7.675 22.414,7.966 21.936,8.284L22.855,9.691C23.314,9.391 23.792,9.109 24.261,8.828L23.399,7.384ZM40.02,9.063C39.467,9.156 38.905,9.222 38.352,9.288C38.389,9.756 38.361,10.262 38.267,10.656L39.908,11.041C40.002,10.366 40.086,9.672 40.02,9.063ZM20.511,9.222C20.042,9.541 19.583,9.869 19.114,10.188L20.089,11.566C20.539,11.237 20.999,10.928 21.458,10.609L20.511,9.222ZM17.736,11.2C17.267,11.538 16.78,11.912 16.377,12.222L17.398,13.563C17.914,13.188 18.27,12.906 18.739,12.559L17.736,11.2ZM37.705,11.95C37.424,12.381 37.095,12.813 36.767,13.141L37.995,14.313C38.399,13.834 38.83,13.347 39.13,12.859L37.705,11.95ZM15.036,13.272C14.577,13.628 14.117,13.994 13.714,14.331L14.783,15.634C15.223,15.269 15.673,14.894 16.086,14.594L15.036,13.272ZM35.605,14.219C35.174,14.566 34.724,14.903 34.311,15.184L35.277,16.572C35.774,16.234 36.261,15.869 36.683,15.531L35.605,14.219ZM12.411,15.428C11.97,15.784 11.548,16.159 11.117,16.525L12.214,17.809C12.636,17.444 13.058,17.078 13.489,16.722L12.411,15.428ZM32.933,16.084C32.455,16.366 31.958,16.656 31.508,16.9L32.314,18.391C32.82,18.081 33.392,17.809 33.814,17.528L32.933,16.084ZM9.833,17.641C9.411,18.016 8.998,18.391 8.577,18.775L9.711,20.031C10.123,19.656 10.545,19.281 10.958,18.906L9.833,17.641ZM30.036,17.678C29.539,17.922 29.042,18.175 28.545,18.419L29.267,19.938C29.849,19.656 30.28,19.422 30.805,19.178L30.036,17.678ZM27.036,19.122C26.52,19.356 26.024,19.581 25.499,19.797L26.183,21.344C26.699,21.119 27.214,20.884 27.73,20.65L27.036,19.122ZM7.339,19.938C6.861,20.359 6.528,20.688 6.092,21.109L7.283,22.328C7.723,21.906 8.08,21.541 8.492,21.184L7.339,19.938ZM23.961,20.481C23.445,20.697 22.93,20.922 22.414,21.138L23.07,22.703C23.595,22.488 24.111,22.263 24.627,22.038L23.961,20.481ZM20.858,21.794C20.342,22.019 19.827,22.244 19.302,22.45L19.958,24.016C20.474,23.8 20.999,23.575 21.514,23.359L20.858,21.794ZM38.183,22.469C35.183,22.469 32.183,24.719 32.183,29.219L38.183,41.219L44.183,29.219C44.183,24.719 41.183,22.469 38.183,22.469ZM17.745,23.106C17.211,23.35 16.648,23.575 16.189,23.772L16.855,25.328C17.408,25.094 17.933,24.869 18.402,24.663L17.745,23.106ZM14.633,24.438C14.127,24.672 13.536,24.934 13.086,25.141L13.78,26.678C14.333,26.434 14.82,26.191 15.308,25.984L14.633,24.438ZM11.539,25.844C11.014,26.097 10.47,26.359 10.002,26.594L10.761,28.103C11.267,27.841 11.792,27.597 12.252,27.372L11.539,25.844ZM38.183,26.219C39.842,26.219 41.183,27.559 41.183,29.219C41.183,30.878 39.842,32.219 38.183,32.219C36.524,32.219 35.183,30.878 35.183,29.219C35.183,27.559 36.524,26.219 38.183,26.219ZM8.483,27.372C7.986,27.644 7.489,27.925 6.983,28.216L7.827,29.678C8.305,29.397 8.792,29.134 9.28,28.872L8.483,27.372ZM5.511,29.125C4.985,29.425 4.477,29.828 4.039,30.119L5.061,31.469C5.527,31.131 6.028,30.784 6.43,30.541L5.511,29.125ZM2.708,31.244C2.258,31.656 1.814,32.134 1.47,32.538L2.755,33.634C3.116,33.194 3.43,32.866 3.852,32.491L2.708,31.244ZM23.127,31.366L23.277,33.044C23.764,32.959 24.252,33.016 24.739,33.091L25.03,31.431C24.411,31.338 23.755,31.272 23.127,31.366ZM19.639,32.303L20.277,33.869C20.764,33.653 21.27,33.484 21.786,33.325C21.608,32.791 21.477,32.247 21.336,31.703C20.745,31.872 20.155,32.097 19.639,32.303ZM26.905,32.219L25.949,33.606C26.342,33.897 26.727,34.206 27.036,34.591L28.311,33.484C27.833,32.997 27.467,32.538 26.905,32.219ZM18.045,33.063C17.53,33.325 17.033,33.625 16.536,33.916L17.389,35.369C17.877,35.106 18.355,34.797 18.833,34.544L18.045,33.063ZM0.44,34.094C0.157,34.703 -0.073,35.359 -0.18,35.941L1.48,36.231C1.581,35.697 1.726,35.313 1.939,34.853C1.424,34.628 0.933,34.356 0.44,34.094ZM15.073,34.825C14.595,35.134 14.127,35.444 13.658,35.763L14.595,37.169C15.064,36.859 15.523,36.541 15.992,36.231L15.073,34.825ZM29.389,34.938L27.974,35.856C28.274,36.306 28.564,36.775 28.836,37.253L30.299,36.409C29.97,35.884 29.736,35.416 29.389,34.938ZM12.261,36.719C11.792,37.028 11.323,37.328 10.864,37.656L11.802,39.063C12.252,38.734 12.73,38.425 13.208,38.106L12.261,36.719ZM1.498,37.609C0.956,37.722 0.408,37.816 -0.137,37.919C-0.039,38.575 0.224,39.213 0.463,39.719L1.986,38.988C1.783,38.519 1.589,38.031 1.498,37.609ZM31.133,37.872L29.67,38.716C29.961,39.222 30.299,39.766 30.57,40.197L31.986,39.288C31.667,38.791 31.395,38.322 31.133,37.872ZM9.477,38.575C9.008,38.866 8.548,39.147 8.061,39.419L8.895,40.891C9.392,40.6 9.889,40.309 10.367,40L9.477,38.575ZM2.792,40.103L1.639,41.341C2.16,41.838 2.803,42.166 3.505,42.316L3.88,40.675C3.463,40.591 3.074,40.384 2.792,40.103ZM6.636,40.131C6.166,40.347 5.679,40.516 5.173,40.619L5.558,42.269C6.16,42.147 6.726,41.922 7.292,41.688L6.636,40.131ZM32.914,40.581L31.611,41.641C32.014,42.138 32.511,42.616 32.942,42.953L33.983,41.622C33.57,41.303 33.214,40.919 32.914,40.581ZM35.174,42.222L34.752,43.863C35.492,44.013 36.045,44.059 36.739,43.984L36.533,42.306C36.074,42.381 35.624,42.334 35.174,42.222Z" fill="#000000"/>
</svg>
