<svg width="40" height="40" viewBox="0 0 40 40" fill="none" xmlns="http://www.w3.org/2000/svg" xmlns:xlink="http://www.w3.org/1999/xlink">
<path d="M5.86,34.14C3.949,32.295 2.426,30.088 1.378,27.648C0.329,25.208 -0.222,22.584 -0.245,19.928C-0.268,17.273 0.238,14.639 1.243,12.181C2.249,9.723 3.734,7.49 5.612,5.612C7.49,3.734 9.723,2.249 12.181,1.244C14.639,0.238 17.272,-0.268 19.928,-0.245C22.583,-0.222 25.208,0.33 27.648,1.378C30.088,2.426 32.295,3.95 34.14,5.86C37.783,9.632 39.799,14.684 39.753,19.928C39.708,25.172 37.604,30.188 33.896,33.897C30.188,37.605 25.172,39.708 19.928,39.754C14.684,39.799 9.632,37.783 5.86,34.14ZM18,10L18,22L22,22L22,10L18,10ZM18,26L18,30L22,30L22,26L18,26Z" fill="#F24E1E"/>
</svg>
