<svg width="36" height="36" viewBox="0 0 36 36" fill="none" xmlns="http://www.w3.org/2000/svg" xmlns:xlink="http://www.w3.org/1999/xlink">
<path d="M18,36C20.364,36 22.704,35.534 24.888,34.63C27.072,33.725 29.056,32.399 30.728,30.728C32.399,29.056 33.725,27.072 34.63,24.888C35.534,22.704 36,20.364 36,18C36,15.636 35.534,13.296 34.63,11.112C33.725,8.928 32.399,6.944 30.728,5.272C29.056,3.601 27.072,2.275 24.888,1.37C22.704,0.466 20.364,0 18,0C13.226,0 8.648,1.896 5.272,5.272C1.896,8.648 0,13.226 0,18C0,22.774 1.896,27.352 5.272,30.728C8.648,34.104 13.226,36 18,36ZM17.536,25.28L27.536,13.28L24.464,10.72L15.864,21.038L11.414,16.586L8.586,19.414L14.586,25.414L16.134,26.962L17.536,25.28Z" clip-rule="evenodd" fill-rule="evenodd" fill="#0FA958"/>
</svg>
