<svg width="40" height="40" viewBox="0 0 40 40" fill="none" xmlns="http://www.w3.org/2000/svg" xmlns:xlink="http://www.w3.org/1999/xlink">
<path d="M31.061,28.939C30.475,28.354 29.525,28.354 28.939,28.939C28.354,29.525 28.354,30.475 28.939,31.061L31.061,28.939ZM36.939,39.061C37.525,39.646 38.475,39.646 39.061,39.061C39.646,38.475 39.646,37.525 39.061,36.939L36.939,39.061ZM2,18L0.5,18L2,18ZM18,34L18,35.5L18,34ZM34,18L35.5,18L34,18ZM18,2L18,0.5L18,2ZM28.939,31.061L36.939,39.061L39.061,36.939L31.061,28.939L28.939,31.061ZM0.5,18C0.5,22.641 2.344,27.092 5.626,30.374L7.747,28.253C5.028,25.534 3.5,21.846 3.5,18L0.5,18ZM5.626,30.374C8.908,33.656 13.359,35.5 18,35.5L18,32.5C14.154,32.5 10.466,30.972 7.747,28.253L5.626,30.374ZM18,35.5C22.641,35.5 27.092,33.656 30.374,30.374L28.253,28.253C25.534,30.972 21.846,32.5 18,32.5L18,35.5ZM30.374,30.374C33.656,27.092 35.5,22.641 35.5,18L32.5,18C32.5,21.846 30.972,25.534 28.253,28.253L30.374,30.374ZM35.5,18C35.5,13.359 33.656,8.908 30.374,5.626L28.253,7.747C30.972,10.466 32.5,14.154 32.5,18L35.5,18ZM30.374,5.626C27.092,2.344 22.641,0.5 18,0.5L18,3.5C21.846,3.5 25.534,5.028 28.253,7.747L30.374,5.626ZM18,0.5C13.359,0.5 8.908,2.344 5.626,5.626L7.747,7.747C10.466,5.028 14.154,3.5 18,3.5L18,0.5ZM5.626,5.626C2.344,8.908 0.5,13.359 0.5,18L3.5,18C3.5,14.154 5.028,10.466 7.747,7.747L5.626,5.626Z" fill="#000000"/>
</svg>
