<svg width="36" height="44" viewBox="0 0 36 44" fill="none" xmlns="http://www.w3.org/2000/svg" xmlns:xlink="http://www.w3.org/1999/xlink">
<path d="M18,12C19.061,12 20.078,11.579 20.828,10.828C21.579,10.078 22,9.061 22,8C22,7.24 21.8,6.54 21.42,5.94L18,0L14.58,5.94C14.2,6.54 14,7.24 14,8C14,10.2 15.8,12 18,12ZM27.06,31.84L25.06,29.84L22.9,31.98C20.3,34.58 15.74,34.6 13.12,31.98L10.98,29.84L8.8,31.98C7.5,33.28 5.76,34 3.92,34C2.46,34 1.12,33.54 0,32.78L0,44L36,44L36,32.78C34.5,33.8 32.58,34.28 30.52,33.82C29.2,33.54 28.02,32.8 27.06,31.84ZM30,18L20,18L20,14L16,14L16,18L6,18C2.68,18 0,20.68 0,24L0,27.08C0,29.24 1.76,31 3.92,31C4.96,31 5.96,30.6 6.68,29.86L10.96,25.6L15.22,29.86C16.7,31.34 19.28,31.34 20.76,29.86L25.04,25.6L29.3,29.86C30.04,30.6 31.02,31 32.06,31C34.22,31 35.98,29.24 35.98,27.08L35.98,24C36,20.68 33.32,18 30,18Z" fill="#FFFFFF"/>
</svg>
