<svg width="40" height="36" viewBox="0 0 40 36" fill="none" xmlns="http://www.w3.org/2000/svg" xmlns:xlink="http://www.w3.org/1999/xlink">
<path d="M20,6C20.396,6 20.782,6.117 21.111,6.337C21.44,6.557 21.696,6.869 21.848,7.235C21.999,7.6 22.039,8.002 21.962,8.39C21.884,8.778 21.694,9.135 21.414,9.414C21.135,9.694 20.778,9.884 20.39,9.962C20.002,10.039 19.6,9.999 19.235,9.848C18.869,9.696 18.557,9.44 18.337,9.111C18.117,8.782 18,8.396 18,8C18,7.47 18.211,6.961 18.586,6.586C18.961,6.211 19.47,6 20,6ZM8,22L32,22L32,28L8,28L8,22ZM36,6L28,6L28,0L12,0L12,6L4,6C2.939,6 1.922,6.421 1.172,7.172C0.421,7.922 0,8.939 0,10L0,32C0,33.061 0.421,34.078 1.172,34.828C1.922,35.579 2.939,36 4,36L36,36C37.061,36 38.078,35.579 38.828,34.828C39.579,34.078 40,33.061 40,32L40,10C40,8.939 39.579,7.922 38.828,7.172C38.078,6.421 37.061,6 36,6ZM16,4L24,4L24,14L16,14L16,4ZM36,32L4,32L4,14L12,14C12,15.061 12.421,16.078 13.172,16.828C13.922,17.579 14.939,18 16,18L24,18C25.061,18 26.078,17.579 26.828,16.828C27.579,16.078 28,15.061 28,14L36,14L36,32Z" fill="#FFFFFF"/>
</svg>
