<svg width="38" height="40" viewBox="0 0 38 40" fill="none" xmlns="http://www.w3.org/2000/svg" xmlns:xlink="http://www.w3.org/1999/xlink">
<path d="M13.372,1.024C13.763,1.073 14.14,1.198 14.483,1.393C14.826,1.587 15.126,1.847 15.368,2.158C15.61,2.469 15.789,2.825 15.893,3.205C15.998,3.584 16.027,3.981 15.978,4.372L15.274,10L23.226,10L24.024,3.628C24.123,2.839 24.531,2.121 25.159,1.632C25.787,1.143 26.583,0.924 27.373,1.023C28.163,1.122 28.881,1.53 29.369,2.158C29.858,2.786 30.077,3.583 29.978,4.372L29.274,10L34,10C34.796,10 35.559,10.316 36.121,10.879C36.684,11.441 37,12.204 37,13C37,13.796 36.684,14.559 36.121,15.121C35.559,15.684 34.796,16 34,16L28.524,16L27.524,24L33,24C33.796,24 34.559,24.316 35.121,24.879C35.684,25.441 36,26.204 36,27C36,27.796 35.684,28.559 35.121,29.121C34.559,29.684 33.796,30 33,30L26.774,30L25.978,36.372C25.879,37.162 25.471,37.88 24.843,38.368C24.215,38.857 23.419,39.076 22.629,38.977C21.839,38.878 21.121,38.47 20.633,37.842C20.144,37.214 19.925,36.418 20.024,35.628L20.726,30L12.776,30L11.98,36.372C11.881,37.162 11.473,37.88 10.845,38.368C10.217,38.857 9.421,39.076 8.631,38.977C7.841,38.878 7.123,38.47 6.635,37.842C6.146,37.214 5.927,36.418 6.026,35.628L6.726,30L3,30C2.204,30 1.441,29.684 0.879,29.121C0.316,28.559 0,27.796 0,27C0,26.204 0.316,25.441 0.879,24.879C1.441,24.316 2.204,24 3,24L7.476,24L8.476,16L4,16C3.204,16 2.441,15.684 1.879,15.121C1.316,14.559 1,13.796 1,13C1,12.204 1.316,11.441 1.879,10.879C2.441,10.316 3.204,10 4,10L9.226,10L10.024,3.628C10.072,3.237 10.198,2.859 10.392,2.516C10.587,2.174 10.847,1.873 11.158,1.63C11.469,1.388 11.824,1.21 12.204,1.105C12.584,1 12.981,0.971 13.372,1.02L13.372,1.024ZM21.48,24L22.48,16L14.526,16L13.526,24L21.48,24Z" clip-rule="evenodd" fill-rule="evenodd" fill="#FFFFFF"/>
</svg>
