<svg width="1442" height="1500" viewBox="0 0 1442 1500" fill="none" xmlns="http://www.w3.org/2000/svg" xmlns:xlink="http://www.w3.org/1999/xlink">
<path d="M720.938,0C787.524,0 851.358,8.843 912.436,26.529C973.516,44.215 1031.09,69.184 1085.162,101.436C1139.232,133.687 1187.794,172.701 1230.85,218.476C1273.906,264.252 1311.456,314.97 1343.498,370.63C1375.538,426.29 1399.82,485.85 1416.342,549.312C1432.864,612.774 1441.374,679.358 1441.876,749.062C1441.876,818.246 1433.364,884.57 1416.342,948.032C1399.32,1011.494 1375.288,1071.316 1344.248,1127.496C1313.208,1183.674 1275.658,1234.132 1231.602,1278.868C1187.544,1323.604 1138.73,1362.618 1085.162,1395.91C1031.592,1429.2 974.266,1454.43 913.188,1471.596C852.108,1488.762 788.024,1497.604 720.938,1498.124C654.35,1498.124 590.518,1489.282 529.438,1471.596C468.36,1453.91 410.784,1428.94 356.714,1396.69C302.644,1364.438 254.08,1325.424 211.024,1279.648C167.968,1233.872 130.42,1183.154 98.378,1127.496C66.336,1071.836 42.055,1012.274 25.533,948.812C9.012,885.35 0.501,818.766 0,749.062C0,679.878 8.511,613.554 25.533,550.092C42.555,486.63 66.587,426.81 97.627,370.63C128.667,314.45 166.216,263.992 210.274,219.256C254.33,174.521 303.144,135.507 356.714,102.216C410.284,68.924 467.608,43.695 528.688,26.529C589.766,9.363 653.85,0.52 720.938,0ZM720.938,1398.25C778.512,1398.25 833.834,1390.448 886.904,1374.842C939.972,1359.236 989.536,1337.388 1035.596,1309.298C1081.656,1281.208 1123.962,1247.398 1162.512,1207.864C1201.062,1168.33 1233.604,1124.634 1260.138,1076.778C1286.674,1028.92 1307.7,977.162 1323.22,921.502C1338.74,865.844 1346.25,808.364 1345.75,749.062C1345.75,689.242 1338.24,631.762 1323.22,576.622C1308.202,521.482 1287.174,469.984 1260.138,422.128C1233.104,374.272 1200.562,330.316 1162.512,290.262C1124.462,250.208 1082.408,216.396 1036.348,188.826C990.288,161.257 940.472,139.409 886.904,123.283C833.334,107.158 778.012,99.355 720.938,99.875C663.362,99.875 608.04,107.678 554.972,123.283C501.902,138.889 452.338,160.736 406.278,188.826C360.218,216.916 317.914,250.728 279.364,290.262C240.814,329.796 208.27,373.49 181.736,421.348C155.202,469.204 134.174,520.962 118.654,576.622C103.134,632.282 95.624,689.762 96.125,749.062C96.125,808.884 103.635,866.364 118.654,921.502C133.674,976.642 154.701,1028.14 181.736,1075.998C208.772,1123.854 241.314,1167.81 279.364,1207.864C317.412,1247.918 359.468,1281.73 405.528,1309.298C451.588,1336.868 501.402,1358.716 554.972,1374.842C608.542,1390.968 663.864,1398.77 720.938,1398.25ZM769,699.124L1153.5,699.124L1153.5,799L769,799L769,1198.5L672.876,1198.5L672.876,799L288.376,799L288.376,699.124L672.876,699.124L672.876,299.624L769,299.624L769,699.124Z" fill="#000000"/>
</svg>
