<svg width="28" height="28" viewBox="0 0 28 28" fill="none" xmlns="http://www.w3.org/2000/svg" xmlns:xlink="http://www.w3.org/1999/xlink">
<path d="M21.727,19.606C21.142,19.02 20.192,19.02 19.606,19.606C19.02,20.192 19.02,21.142 19.606,21.727L21.727,19.606ZM24.939,27.061C25.525,27.646 26.475,27.646 27.061,27.061C27.646,26.475 27.646,25.525 27.061,24.939L24.939,27.061ZM2,12.667L0.5,12.667L2,12.667ZM12.667,23.333L12.667,24.833L12.667,23.333ZM23.333,12.667L24.833,12.667L23.333,12.667ZM12.667,2L12.667,0.5L12.667,2ZM19.606,21.727L24.939,27.061L27.061,24.939L21.727,19.606L19.606,21.727ZM0.5,12.667C0.5,15.893 1.782,18.988 4.064,21.27L6.185,19.148C4.466,17.429 3.5,15.098 3.5,12.667L0.5,12.667ZM4.064,21.27C6.345,23.551 9.44,24.833 12.667,24.833L12.667,21.833C10.236,21.833 7.904,20.868 6.185,19.148L4.064,21.27ZM12.667,24.833C15.893,24.833 18.988,23.551 21.27,21.27L19.148,19.148C17.429,20.868 15.098,21.833 12.667,21.833L12.667,24.833ZM21.27,21.27C23.551,18.988 24.833,15.893 24.833,12.667L21.833,12.667C21.833,15.098 20.868,17.429 19.148,19.148L21.27,21.27ZM24.833,12.667C24.833,9.44 23.551,6.345 21.27,4.064L19.148,6.185C20.868,7.904 21.833,10.236 21.833,12.667L24.833,12.667ZM21.27,4.064C18.988,1.782 15.893,0.5 12.667,0.5L12.667,3.5C15.098,3.5 17.429,4.466 19.148,6.185L21.27,4.064ZM12.667,0.5C9.44,0.5 6.345,1.782 4.064,4.064L6.185,6.185C7.904,4.466 10.236,3.5 12.667,3.5L12.667,0.5ZM4.064,4.064C1.782,6.345 0.5,9.44 0.5,12.667L3.5,12.667C3.5,10.236 4.466,7.904 6.185,6.185L4.064,4.064Z" fill="#000000"/>
</svg>
