<svg width="42" height="42" viewBox="0 0 42 42" fill="none" xmlns="http://www.w3.org/2000/svg" xmlns:xlink="http://www.w3.org/1999/xlink">
<path d="M39.335,16.197C38.28,17.407 36.828,18.201 35.24,18.435C33.652,18.668 32.033,18.327 30.674,17.472C30.668,17.47 30.662,17.47 30.655,17.472L17.465,30.665L17.465,30.68C17.999,31.541 18.333,32.511 18.441,33.519C18.55,34.526 18.43,35.545 18.091,36.5C17.751,37.455 17.202,38.321 16.482,39.034C15.762,39.748 14.891,40.29 13.933,40.62C12.976,40.951 11.956,41.062 10.949,40.945C9.943,40.828 8.976,40.485 8.119,39.943C7.263,39.401 6.54,38.673 6.004,37.814C5.467,36.954 5.131,35.985 5.021,34.977C4.013,34.867 3.044,34.531 2.184,33.994C1.325,33.458 0.597,32.735 0.055,31.879C-0.487,31.022 -0.83,30.055 -0.947,29.049C-1.064,28.042 -0.953,27.022 -0.622,26.065C-0.292,25.107 0.25,24.236 0.964,23.516C1.677,22.796 2.543,22.247 3.498,21.907C4.453,21.568 5.472,21.448 6.479,21.557C7.487,21.665 8.457,21.999 9.318,22.533C9.324,22.535 9.331,22.535 9.337,22.533L22.527,9.341L22.527,9.326C21.993,8.465 21.659,7.495 21.551,6.487C21.442,5.48 21.562,4.461 21.902,3.506C22.241,2.551 22.791,1.685 23.51,0.971C24.23,0.258 25.101,-0.284 26.059,-0.615C27.017,-0.946 28.037,-1.057 29.043,-0.939C30.05,-0.822 31.017,-0.48 31.873,0.062C32.729,0.604 33.452,1.332 33.989,2.192C34.525,3.051 34.861,4.021 34.972,5.028C36.203,5.158 37.375,5.623 38.359,6.374C39.343,7.125 40.102,8.132 40.552,9.285C41.003,10.438 41.128,11.693 40.913,12.912C40.698,14.131 40.152,15.268 39.335,16.197Z" fill="#FFFFFF"/>
</svg>
