<svg width="12" height="14" viewBox="0 0 12 14" fill="none" xmlns="http://www.w3.org/2000/svg" xmlns:xlink="http://www.w3.org/1999/xlink">
<path d="M5.994,-0.001C4.134,-0.001 2.619,1.514 2.619,3.374C2.619,3.414 2.625,3.454 2.637,3.492C2.669,4.676 3.182,5.712 3.785,6.672C4.409,7.664 5.131,8.594 5.594,9.544C5.625,9.606 5.672,9.659 5.731,9.696C5.79,9.734 5.858,9.754 5.927,9.755C5.997,9.755 6.065,9.737 6.125,9.701C6.185,9.665 6.233,9.613 6.265,9.551C6.752,8.603 7.511,7.671 8.167,6.68C8.822,5.688 9.381,4.617 9.381,3.38C9.382,3.332 9.373,3.285 9.356,3.24C9.284,1.444 7.808,-0.001 5.994,-0.001ZM5.994,0.749C7.449,0.749 8.619,1.919 8.619,3.374C8.619,3.4 8.621,3.427 8.627,3.454C8.604,4.435 8.151,5.344 7.541,6.266C7.025,7.047 6.442,7.853 5.939,8.691C5.461,7.857 4.91,7.052 4.421,6.274C3.826,5.327 3.381,4.395 3.381,3.379C3.381,3.357 3.379,3.335 3.375,3.314C3.388,2.628 3.67,1.975 4.16,1.496C4.65,1.016 5.309,0.748 5.994,0.749ZM5.994,2.25C5.378,2.25 4.869,2.759 4.869,3.375C4.869,3.992 5.378,4.5 5.994,4.5C6.611,4.5 7.119,3.992 7.119,3.375C7.119,2.759 6.611,2.25 5.994,2.25ZM5.994,3C6.206,3 6.369,3.164 6.369,3.375C6.369,3.587 6.206,3.75 5.994,3.75C5.945,3.751 5.896,3.742 5.85,3.723C5.804,3.704 5.762,3.677 5.727,3.642C5.692,3.607 5.665,3.565 5.646,3.519C5.628,3.474 5.618,3.424 5.619,3.375C5.619,3.164 5.783,3 5.994,3ZM9.062,6.92C8.974,6.92 8.89,6.951 8.822,7.007C8.755,7.063 8.71,7.141 8.694,7.227C8.678,7.312 8.692,7.401 8.735,7.478C8.777,7.554 8.845,7.613 8.927,7.645C9.674,7.948 10.155,8.345 10.362,8.71C10.57,9.075 10.565,9.391 10.294,9.779C9.75,10.556 8.017,11.245 6.038,11.253C4.059,11.261 2.302,10.591 1.727,9.812C1.44,9.422 1.426,9.104 1.619,8.741C1.812,8.378 2.275,7.977 3.011,7.668C3.058,7.651 3.102,7.624 3.138,7.589C3.175,7.554 3.205,7.512 3.225,7.466C3.245,7.419 3.256,7.369 3.256,7.318C3.256,7.268 3.246,7.218 3.227,7.171C3.207,7.124 3.178,7.082 3.142,7.047C3.105,7.012 3.062,6.984 3.015,6.966C2.968,6.948 2.917,6.939 2.866,6.941C2.816,6.943 2.766,6.956 2.72,6.977C1.88,7.33 1.268,7.804 0.956,8.39C0.645,8.975 0.699,9.681 1.124,10.257C1.973,11.408 3.907,12.012 6.043,12.003C8.178,11.994 10.094,11.375 10.909,10.211C11.316,9.628 11.344,8.918 11.014,8.339C10.685,7.76 10.059,7.294 9.208,6.95C9.162,6.93 9.112,6.92 9.062,6.92L9.062,6.92Z" fill="#585858"/>
</svg>
