<svg width="40" height="40" viewBox="0 0 40 40" fill="none" xmlns="http://www.w3.org/2000/svg" xmlns:xlink="http://www.w3.org/1999/xlink">
<path d="M29.002,0.5L29.002,3.5L34.346,3.5L29.284,8.609C27.474,7.242 25.269,6.502 23.002,6.5C20.197,6.5 17.578,7.61 15.595,9.595C14.615,10.563 13.836,11.716 13.305,12.988C12.774,14.259 12.501,15.623 12.501,17.001C12.501,18.379 12.775,19.743 13.306,21.014C13.838,22.286 14.616,23.439 15.596,24.407C16.901,25.712 18.455,26.649 20.189,27.125C20.36,26.994 20.552,26.858 20.705,26.705C21.334,26.066 21.786,25.274 22.016,24.407C20.383,24.206 18.865,23.463 17.704,22.297C16.288,20.882 15.502,19.004 15.502,17C15.502,14.996 16.289,13.121 17.707,11.705C19.12,10.284 20.998,9.5 23.002,9.5C25.006,9.5 26.882,10.288 28.297,11.705C28.996,12.398 29.552,13.223 29.93,14.131C30.309,15.04 30.503,16.015 30.502,17C30.502,18.297 30.134,19.505 29.518,20.609C29.662,21.383 29.752,22.196 29.752,23C29.752,23.749 29.689,24.484 29.564,25.205C29.864,24.96 30.131,24.683 30.409,24.407C32.392,22.421 33.502,19.805 33.502,17C33.502,14.705 32.746,12.524 31.393,10.718L36.502,5.657L36.502,11L39.502,11L39.502,0.5L29.002,0.5ZM19.814,12.875C19.643,13.006 19.451,13.142 19.298,13.295C18.65,13.946 18.227,14.735 17.987,15.595C19.622,15.805 21.115,16.519 22.3,17.703C23.717,19.118 24.505,20.996 24.505,22.999C24.505,25.001 23.717,26.877 22.3,28.293C20.884,29.715 19.006,30.5 17.002,30.5C14.998,30.5 13.121,29.713 11.707,28.295C11.007,27.603 10.451,26.778 10.072,25.869C9.694,24.96 9.5,23.985 9.502,23C9.502,21.702 9.869,20.495 10.486,19.391C10.337,18.603 10.259,17.802 10.252,17C10.252,16.252 10.314,15.517 10.439,14.795C10.139,15.039 9.874,15.317 9.595,15.595C7.615,17.576 6.502,20.195 6.502,23C6.502,25.295 7.258,27.476 8.611,29.282L6.082,31.812L3.082,28.812L0.922,30.922L3.922,33.922L0.922,36.922L3.082,39.082L6.082,36.082L9.082,39.082L11.189,36.922L8.189,33.922L10.721,31.392C12.529,32.761 14.735,33.501 17.002,33.5C19.807,33.5 22.426,32.39 24.409,30.406C26.392,28.424 27.502,25.805 27.502,23C27.502,20.195 26.392,17.579 24.407,15.593C23.102,14.288 21.548,13.35 19.814,12.875Z" fill="#FFFFFF"/>
</svg>
