<svg width="90" height="90" viewBox="0 0 90 90" fill="none" xmlns="http://www.w3.org/2000/svg" xmlns:xlink="http://www.w3.org/1999/xlink">
<path d="M45,0C49.156,0 53.141,0.531 56.953,1.594C60.766,2.656 64.359,4.156 67.734,6.094C71.109,8.031 74.141,10.375 76.828,13.125C79.516,15.875 81.859,18.922 83.859,22.266C85.859,25.609 87.375,29.188 88.406,33C89.438,36.812 89.969,40.812 90,45C90,49.156 89.469,53.141 88.406,56.953C87.344,60.766 85.844,64.359 83.906,67.734C81.969,71.109 79.625,74.141 76.875,76.828C74.125,79.516 71.078,81.859 67.734,83.859C64.391,85.859 60.812,87.375 57,88.406C53.188,89.438 49.188,89.969 45,90C40.844,90 36.859,89.469 33.047,88.406C29.234,87.344 25.641,85.844 22.266,83.906C18.891,81.969 15.859,79.625 13.172,76.875C10.484,74.125 8.141,71.078 6.141,67.734C4.141,64.391 2.625,60.812 1.594,57C0.563,53.188 0.031,49.188 0,45C0,40.844 0.531,36.859 1.594,33.047C2.656,29.234 4.156,25.641 6.094,22.266C8.031,18.891 10.375,15.859 13.125,13.172C15.875,10.484 18.922,8.141 22.266,6.141C25.609,4.141 29.188,2.625 33,1.594C36.812,0.563 40.812,0.031 45,0ZM45,84C48.594,84 52.047,83.531 55.359,82.594C58.672,81.656 61.766,80.344 64.641,78.656C67.516,76.969 70.156,74.938 72.562,72.562C74.969,70.188 77,67.562 78.656,64.688C80.312,61.812 81.625,58.703 82.594,55.359C83.562,52.016 84.031,48.562 84,45C84,41.406 83.531,37.953 82.594,34.641C81.656,31.328 80.344,28.234 78.656,25.359C76.969,22.484 74.938,19.844 72.562,17.438C70.188,15.031 67.562,13 64.688,11.344C61.812,9.688 58.703,8.375 55.359,7.406C52.016,6.438 48.562,5.969 45,6C41.406,6 37.953,6.469 34.641,7.406C31.328,8.344 28.234,9.656 25.359,11.344C22.484,13.031 19.844,15.063 17.438,17.438C15.031,19.813 13,22.438 11.344,25.312C9.688,28.188 8.375,31.297 7.406,34.641C6.438,37.984 5.969,41.438 6,45C6,48.594 6.469,52.047 7.406,55.359C8.344,58.672 9.656,61.766 11.344,64.641C13.031,67.516 15.063,70.156 17.438,72.562C19.813,74.969 22.438,77 25.312,78.656C28.188,80.312 31.297,81.625 34.641,82.594C37.984,83.562 41.438,84.031 45,84ZM48,42L72,42L72,48L48,48L48,72L42,72L42,48L18,48L18,42L42,42L42,18L48,18L48,42Z" fill="#000000"/>
</svg>
