<svg width="18" height="18" viewBox="0 0 18 18" fill="none" xmlns="http://www.w3.org/2000/svg" xmlns:xlink="http://www.w3.org/1999/xlink">
<path d="M2.669,15.395C2.674,15.4 2.679,15.405 2.685,15.41C4.31,17.011 6.54,18 9,18C11.46,18 13.69,17.011 15.316,15.409C15.321,15.405 15.326,15.4 15.33,15.395C16.978,13.763 18,11.5 18,9L18,9C18,6.5 16.978,4.237 15.33,2.605L15.305,2.58C14.887,2.17 14.43,1.8 13.94,1.478C13.14,0.951 12.255,0.553 11.329,0.305C10.57,0.102 9.786,0.001 9,0C6.54,0 4.31,0.989 2.684,2.591C2.679,2.596 2.674,2.6 2.669,2.605C1.022,4.237 0,6.5 0,9C0,11.5 1.022,13.763 2.669,15.395ZM5.501,14.147C4.883,14.396 4.254,14.727 3.619,15.153C4.788,16.176 6.25,16.872 7.863,17.097C6.849,16.101 6.076,15.114 5.501,14.147ZM12.475,14.187C11.903,15.141 11.137,16.115 10.137,17.097C11.749,16.872 13.21,16.177 14.379,15.155C13.99,14.903 13.332,14.522 12.475,14.187ZM9.412,13.5L9.412,16.652C10.376,15.725 11.12,14.809 11.678,13.911C11.002,13.706 10.239,13.549 9.412,13.5ZM8.588,13.489C7.859,13.512 7.089,13.626 6.295,13.866C6.856,14.779 7.608,15.71 8.588,16.652L8.588,13.489ZM14.985,14.568C16.256,13.202 17.067,11.4 17.165,9.412L13.927,9.412C13.922,9.606 13.911,9.802 13.893,10C13.793,11.104 13.482,12.265 12.876,13.462C13.865,13.859 14.6,14.308 14.985,14.568ZM5.101,13.416C4.511,12.236 4.206,11.09 4.107,10C4.089,9.802 4.078,9.606 4.073,9.412L0.835,9.412C0.934,11.4 1.743,13.201 3.015,14.567C3.718,14.08 4.416,13.702 5.101,13.416ZM12.094,13.179C12.676,12.055 12.978,10.965 13.072,9.925C13.088,9.753 13.098,9.582 13.103,9.412L9.412,9.412L9.412,12.671C10.4,12.726 11.306,12.924 12.094,13.179ZM8.588,12.66L8.588,9.412L4.897,9.412C4.902,9.582 4.912,9.753 4.928,9.925C5.021,10.949 5.315,12.022 5.88,13.128C6.82,12.823 7.73,12.684 8.588,12.66ZM17.165,8.588C17.067,6.6 16.256,4.799 14.985,3.432C14.585,3.701 13.81,4.174 12.765,4.582C13.354,5.753 13.809,7.107 13.909,8.588L17.165,8.588ZM13.085,8.588C12.986,7.205 12.552,5.942 11.995,4.853C11.23,5.092 10.359,5.276 9.412,5.329L9.412,8.588L13.085,8.588ZM8.588,8.588L8.588,5.34C7.76,5.317 6.884,5.187 5.979,4.904C5.434,5.981 5.013,7.226 4.915,8.588L8.588,8.588ZM4.091,8.588C4.19,7.127 4.634,5.789 5.211,4.629C4.492,4.338 3.757,3.947 3.015,3.433C1.743,4.799 0.934,6.6 0.835,8.588L4.091,8.588ZM8.588,1.353C8.003,1.936 7.136,2.906 6.388,4.161C7.15,4.383 7.887,4.489 8.588,4.511L8.588,1.353ZM9.412,1.353L9.412,4.5C10.202,4.453 10.933,4.308 11.585,4.117C10.844,2.883 9.99,1.929 9.412,1.353ZM7.886,0.9C6.265,1.121 4.794,1.819 3.619,2.847C4.29,3.298 4.955,3.641 5.606,3.895C6.364,2.587 7.25,1.556 7.886,0.9ZM10.114,0.9C10.743,1.549 11.617,2.565 12.37,3.854C13.278,3.509 13.974,3.107 14.379,2.845C13.205,1.818 11.735,1.121 10.114,0.9Z" clip-rule="evenodd" fill-rule="evenodd" fill="#2A19BD"/>
</svg>
